<?xml version="1.0" encoding="utf-8"?>
<svg xmlns="http://www.w3.org/2000/svg" xmlns:xlink="http://www.w3.org/1999/xlink" width="600" height="400" viewBox="0 0 2400 1600">
<defs>
  <clipPath id="clip480">
    <rect x="0" y="0" width="2400" height="1600"/>
  </clipPath>
</defs>
<path clip-path="url(#clip480)" d="
M0 1600 L2400 1600 L2400 0 L0 0  Z
  " fill="#ffffff" fill-rule="evenodd" fill-opacity="1"/>
<defs>
  <clipPath id="clip481">
    <rect x="480" y="0" width="1681" height="1600"/>
  </clipPath>
</defs>
<path clip-path="url(#clip480)" d="
M156.112 1486.45 L2352.76 1486.45 L2352.76 47.2441 L156.112 47.2441  Z
  " fill="#ffffff" fill-rule="evenodd" fill-opacity="1"/>
<defs>
  <clipPath id="clip482">
    <rect x="156" y="47" width="2198" height="1440"/>
  </clipPath>
</defs>
<polyline clip-path="url(#clip482)" style="stroke:#000000; stroke-linecap:butt; stroke-linejoin:round; stroke-width:2; stroke-opacity:0.1; fill:none" points="
  549.645,1486.45 549.645,47.2441 
  "/>
<polyline clip-path="url(#clip482)" style="stroke:#000000; stroke-linecap:butt; stroke-linejoin:round; stroke-width:2; stroke-opacity:0.1; fill:none" points="
  944.039,1486.45 944.039,47.2441 
  "/>
<polyline clip-path="url(#clip482)" style="stroke:#000000; stroke-linecap:butt; stroke-linejoin:round; stroke-width:2; stroke-opacity:0.1; fill:none" points="
  1338.43,1486.45 1338.43,47.2441 
  "/>
<polyline clip-path="url(#clip482)" style="stroke:#000000; stroke-linecap:butt; stroke-linejoin:round; stroke-width:2; stroke-opacity:0.1; fill:none" points="
  1732.83,1486.45 1732.83,47.2441 
  "/>
<polyline clip-path="url(#clip482)" style="stroke:#000000; stroke-linecap:butt; stroke-linejoin:round; stroke-width:2; stroke-opacity:0.1; fill:none" points="
  2127.22,1486.45 2127.22,47.2441 
  "/>
<polyline clip-path="url(#clip480)" style="stroke:#000000; stroke-linecap:butt; stroke-linejoin:round; stroke-width:4; stroke-opacity:1; fill:none" points="
  156.112,1486.45 2352.76,1486.45 
  "/>
<polyline clip-path="url(#clip480)" style="stroke:#000000; stroke-linecap:butt; stroke-linejoin:round; stroke-width:4; stroke-opacity:1; fill:none" points="
  549.645,1486.45 549.645,1467.55 
  "/>
<polyline clip-path="url(#clip480)" style="stroke:#000000; stroke-linecap:butt; stroke-linejoin:round; stroke-width:4; stroke-opacity:1; fill:none" points="
  944.039,1486.45 944.039,1467.55 
  "/>
<polyline clip-path="url(#clip480)" style="stroke:#000000; stroke-linecap:butt; stroke-linejoin:round; stroke-width:4; stroke-opacity:1; fill:none" points="
  1338.43,1486.45 1338.43,1467.55 
  "/>
<polyline clip-path="url(#clip480)" style="stroke:#000000; stroke-linecap:butt; stroke-linejoin:round; stroke-width:4; stroke-opacity:1; fill:none" points="
  1732.83,1486.45 1732.83,1467.55 
  "/>
<polyline clip-path="url(#clip480)" style="stroke:#000000; stroke-linecap:butt; stroke-linejoin:round; stroke-width:4; stroke-opacity:1; fill:none" points="
  2127.22,1486.45 2127.22,1467.55 
  "/>
<path clip-path="url(#clip480)" d="M519.113 1530.29 L548.788 1530.29 L548.788 1534.23 L519.113 1534.23 L519.113 1530.29 Z" fill="#000000" fill-rule="evenodd" fill-opacity="1" /><path clip-path="url(#clip480)" d="M573.047 1528.49 Q576.404 1529.2 578.279 1531.47 Q580.177 1533.74 580.177 1537.07 Q580.177 1542.19 576.659 1544.99 Q573.14 1547.79 566.659 1547.79 Q564.483 1547.79 562.168 1547.35 Q559.876 1546.93 557.422 1546.08 L557.422 1541.56 Q559.367 1542.7 561.682 1543.28 Q563.997 1543.86 566.52 1543.86 Q570.918 1543.86 573.209 1542.12 Q575.524 1540.38 575.524 1537.07 Q575.524 1534.02 573.371 1532.31 Q571.242 1530.57 567.422 1530.57 L563.395 1530.57 L563.395 1526.73 L567.608 1526.73 Q571.057 1526.73 572.885 1525.36 Q574.714 1523.97 574.714 1521.38 Q574.714 1518.72 572.816 1517.31 Q570.941 1515.87 567.422 1515.87 Q565.501 1515.87 563.302 1516.29 Q561.103 1516.7 558.464 1517.58 L558.464 1513.42 Q561.126 1512.68 563.441 1512.31 Q565.779 1511.93 567.839 1511.93 Q573.163 1511.93 576.265 1514.37 Q579.367 1516.77 579.367 1520.89 Q579.367 1523.76 577.723 1525.75 Q576.08 1527.72 573.047 1528.49 Z" fill="#000000" fill-rule="evenodd" fill-opacity="1" /><path clip-path="url(#clip480)" d="M913.982 1530.29 L943.657 1530.29 L943.657 1534.23 L913.982 1534.23 L913.982 1530.29 Z" fill="#000000" fill-rule="evenodd" fill-opacity="1" /><path clip-path="url(#clip480)" d="M957.778 1543.18 L974.097 1543.18 L974.097 1547.12 L952.153 1547.12 L952.153 1543.18 Q954.815 1540.43 959.398 1535.8 Q964.005 1531.15 965.185 1529.81 Q967.43 1527.28 968.31 1525.55 Q969.213 1523.79 969.213 1522.1 Q969.213 1519.34 967.268 1517.61 Q965.347 1515.87 962.245 1515.87 Q960.046 1515.87 957.593 1516.63 Q955.162 1517.4 952.384 1518.95 L952.384 1514.23 Q955.208 1513.09 957.662 1512.51 Q960.116 1511.93 962.153 1511.93 Q967.523 1511.93 970.717 1514.62 Q973.912 1517.31 973.912 1521.8 Q973.912 1523.93 973.102 1525.85 Q972.315 1527.74 970.208 1530.34 Q969.629 1531.01 966.528 1534.23 Q963.426 1537.42 957.778 1543.18 Z" fill="#000000" fill-rule="evenodd" fill-opacity="1" /><path clip-path="url(#clip480)" d="M1308.19 1530.29 L1337.87 1530.29 L1337.87 1534.23 L1308.19 1534.23 L1308.19 1530.29 Z" fill="#000000" fill-rule="evenodd" fill-opacity="1" /><path clip-path="url(#clip480)" d="M1348.77 1543.18 L1356.41 1543.18 L1356.41 1516.82 L1348.1 1518.49 L1348.1 1514.23 L1356.36 1512.56 L1361.04 1512.56 L1361.04 1543.18 L1368.68 1543.18 L1368.68 1547.12 L1348.77 1547.12 L1348.77 1543.18 Z" fill="#000000" fill-rule="evenodd" fill-opacity="1" /><path clip-path="url(#clip480)" d="M1732.83 1515.64 Q1729.22 1515.64 1727.39 1519.2 Q1725.58 1522.75 1725.58 1529.87 Q1725.58 1536.98 1727.39 1540.55 Q1729.22 1544.09 1732.83 1544.09 Q1736.46 1544.09 1738.27 1540.55 Q1740.1 1536.98 1740.1 1529.87 Q1740.1 1522.75 1738.27 1519.2 Q1736.46 1515.64 1732.83 1515.64 M1732.83 1511.93 Q1738.64 1511.93 1741.69 1516.54 Q1744.77 1521.12 1744.77 1529.87 Q1744.77 1538.6 1741.69 1543.21 Q1738.64 1547.79 1732.83 1547.79 Q1727.02 1547.79 1723.94 1543.21 Q1720.88 1538.6 1720.88 1529.87 Q1720.88 1521.12 1723.94 1516.54 Q1727.02 1511.93 1732.83 1511.93 Z" fill="#000000" fill-rule="evenodd" fill-opacity="1" /><path clip-path="url(#clip480)" d="M2117.61 1543.18 L2125.24 1543.18 L2125.24 1516.82 L2116.93 1518.49 L2116.93 1514.23 L2125.2 1512.56 L2129.87 1512.56 L2129.87 1543.18 L2137.51 1543.18 L2137.51 1547.12 L2117.61 1547.12 L2117.61 1543.18 Z" fill="#000000" fill-rule="evenodd" fill-opacity="1" /><polyline clip-path="url(#clip482)" style="stroke:#000000; stroke-linecap:butt; stroke-linejoin:round; stroke-width:2; stroke-opacity:0.1; fill:none" points="
  156.112,1445.72 2352.76,1445.72 
  "/>
<polyline clip-path="url(#clip482)" style="stroke:#000000; stroke-linecap:butt; stroke-linejoin:round; stroke-width:2; stroke-opacity:0.1; fill:none" points="
  156.112,1172.67 2352.76,1172.67 
  "/>
<polyline clip-path="url(#clip482)" style="stroke:#000000; stroke-linecap:butt; stroke-linejoin:round; stroke-width:2; stroke-opacity:0.1; fill:none" points="
  156.112,899.631 2352.76,899.631 
  "/>
<polyline clip-path="url(#clip482)" style="stroke:#000000; stroke-linecap:butt; stroke-linejoin:round; stroke-width:2; stroke-opacity:0.1; fill:none" points="
  156.112,626.589 2352.76,626.589 
  "/>
<polyline clip-path="url(#clip482)" style="stroke:#000000; stroke-linecap:butt; stroke-linejoin:round; stroke-width:2; stroke-opacity:0.1; fill:none" points="
  156.112,353.546 2352.76,353.546 
  "/>
<polyline clip-path="url(#clip482)" style="stroke:#000000; stroke-linecap:butt; stroke-linejoin:round; stroke-width:2; stroke-opacity:0.1; fill:none" points="
  156.112,80.5037 2352.76,80.5037 
  "/>
<polyline clip-path="url(#clip480)" style="stroke:#000000; stroke-linecap:butt; stroke-linejoin:round; stroke-width:4; stroke-opacity:1; fill:none" points="
  156.112,1486.45 156.112,47.2441 
  "/>
<polyline clip-path="url(#clip480)" style="stroke:#000000; stroke-linecap:butt; stroke-linejoin:round; stroke-width:4; stroke-opacity:1; fill:none" points="
  156.112,1445.72 175.01,1445.72 
  "/>
<polyline clip-path="url(#clip480)" style="stroke:#000000; stroke-linecap:butt; stroke-linejoin:round; stroke-width:4; stroke-opacity:1; fill:none" points="
  156.112,1172.67 175.01,1172.67 
  "/>
<polyline clip-path="url(#clip480)" style="stroke:#000000; stroke-linecap:butt; stroke-linejoin:round; stroke-width:4; stroke-opacity:1; fill:none" points="
  156.112,899.631 175.01,899.631 
  "/>
<polyline clip-path="url(#clip480)" style="stroke:#000000; stroke-linecap:butt; stroke-linejoin:round; stroke-width:4; stroke-opacity:1; fill:none" points="
  156.112,626.589 175.01,626.589 
  "/>
<polyline clip-path="url(#clip480)" style="stroke:#000000; stroke-linecap:butt; stroke-linejoin:round; stroke-width:4; stroke-opacity:1; fill:none" points="
  156.112,353.546 175.01,353.546 
  "/>
<polyline clip-path="url(#clip480)" style="stroke:#000000; stroke-linecap:butt; stroke-linejoin:round; stroke-width:4; stroke-opacity:1; fill:none" points="
  156.112,80.5037 175.01,80.5037 
  "/>
<path clip-path="url(#clip480)" d="M62.9365 1431.51 Q59.3254 1431.51 57.4967 1435.08 Q55.6912 1438.62 55.6912 1445.75 Q55.6912 1452.86 57.4967 1456.42 Q59.3254 1459.96 62.9365 1459.96 Q66.5707 1459.96 68.3763 1456.42 Q70.205 1452.86 70.205 1445.75 Q70.205 1438.62 68.3763 1435.08 Q66.5707 1431.51 62.9365 1431.51 M62.9365 1427.81 Q68.7467 1427.81 71.8022 1432.42 Q74.8809 1437 74.8809 1445.75 Q74.8809 1454.48 71.8022 1459.08 Q68.7467 1463.67 62.9365 1463.67 Q57.1264 1463.67 54.0477 1459.08 Q50.9921 1454.48 50.9921 1445.75 Q50.9921 1437 54.0477 1432.42 Q57.1264 1427.81 62.9365 1427.81 Z" fill="#000000" fill-rule="evenodd" fill-opacity="1" /><path clip-path="url(#clip480)" d="M83.0984 1457.12 L87.9827 1457.12 L87.9827 1463 L83.0984 1463 L83.0984 1457.12 Z" fill="#000000" fill-rule="evenodd" fill-opacity="1" /><path clip-path="url(#clip480)" d="M108.168 1431.51 Q104.557 1431.51 102.728 1435.08 Q100.922 1438.62 100.922 1445.75 Q100.922 1452.86 102.728 1456.42 Q104.557 1459.96 108.168 1459.96 Q111.802 1459.96 113.608 1456.42 Q115.436 1452.86 115.436 1445.75 Q115.436 1438.62 113.608 1435.08 Q111.802 1431.51 108.168 1431.51 M108.168 1427.81 Q113.978 1427.81 117.033 1432.42 Q120.112 1437 120.112 1445.75 Q120.112 1454.48 117.033 1459.08 Q113.978 1463.67 108.168 1463.67 Q102.358 1463.67 99.2789 1459.08 Q96.2234 1454.48 96.2234 1445.75 Q96.2234 1437 99.2789 1432.42 Q102.358 1427.81 108.168 1427.81 Z" fill="#000000" fill-rule="evenodd" fill-opacity="1" /><path clip-path="url(#clip480)" d="M63.9319 1158.47 Q60.3208 1158.47 58.4921 1162.04 Q56.6865 1165.58 56.6865 1172.71 Q56.6865 1179.81 58.4921 1183.38 Q60.3208 1186.92 63.9319 1186.92 Q67.5661 1186.92 69.3717 1183.38 Q71.2004 1179.81 71.2004 1172.71 Q71.2004 1165.58 69.3717 1162.04 Q67.5661 1158.47 63.9319 1158.47 M63.9319 1154.77 Q69.742 1154.77 72.7976 1159.37 Q75.8763 1163.96 75.8763 1172.71 Q75.8763 1181.43 72.7976 1186.04 Q69.742 1190.62 63.9319 1190.62 Q58.1217 1190.62 55.043 1186.04 Q51.9875 1181.43 51.9875 1172.71 Q51.9875 1163.96 55.043 1159.37 Q58.1217 1154.77 63.9319 1154.77 Z" fill="#000000" fill-rule="evenodd" fill-opacity="1" /><path clip-path="url(#clip480)" d="M84.0938 1184.07 L88.978 1184.07 L88.978 1189.95 L84.0938 1189.95 L84.0938 1184.07 Z" fill="#000000" fill-rule="evenodd" fill-opacity="1" /><path clip-path="url(#clip480)" d="M99.2095 1155.39 L117.566 1155.39 L117.566 1159.33 L103.492 1159.33 L103.492 1167.8 Q104.51 1167.45 105.529 1167.29 Q106.547 1167.11 107.566 1167.11 Q113.353 1167.11 116.733 1170.28 Q120.112 1173.45 120.112 1178.87 Q120.112 1184.44 116.64 1187.55 Q113.168 1190.62 106.848 1190.62 Q104.672 1190.62 102.404 1190.25 Q100.159 1189.88 97.7511 1189.14 L97.7511 1184.44 Q99.8345 1185.58 102.057 1186.13 Q104.279 1186.69 106.756 1186.69 Q110.76 1186.69 113.098 1184.58 Q115.436 1182.48 115.436 1178.87 Q115.436 1175.25 113.098 1173.15 Q110.76 1171.04 106.756 1171.04 Q104.881 1171.04 103.006 1171.46 Q101.154 1171.87 99.2095 1172.75 L99.2095 1155.39 Z" fill="#000000" fill-rule="evenodd" fill-opacity="1" /><path clip-path="url(#clip480)" d="M53.7467 912.976 L61.3856 912.976 L61.3856 886.61 L53.0754 888.277 L53.0754 884.018 L61.3393 882.351 L66.0152 882.351 L66.0152 912.976 L73.654 912.976 L73.654 916.911 L53.7467 916.911 L53.7467 912.976 Z" fill="#000000" fill-rule="evenodd" fill-opacity="1" /><path clip-path="url(#clip480)" d="M83.0984 911.031 L87.9827 911.031 L87.9827 916.911 L83.0984 916.911 L83.0984 911.031 Z" fill="#000000" fill-rule="evenodd" fill-opacity="1" /><path clip-path="url(#clip480)" d="M108.168 885.43 Q104.557 885.43 102.728 888.994 Q100.922 892.536 100.922 899.666 Q100.922 906.772 102.728 910.337 Q104.557 913.879 108.168 913.879 Q111.802 913.879 113.608 910.337 Q115.436 906.772 115.436 899.666 Q115.436 892.536 113.608 888.994 Q111.802 885.43 108.168 885.43 M108.168 881.726 Q113.978 881.726 117.033 886.332 Q120.112 890.916 120.112 899.666 Q120.112 908.392 117.033 912.999 Q113.978 917.582 108.168 917.582 Q102.358 917.582 99.2789 912.999 Q96.2234 908.392 96.2234 899.666 Q96.2234 890.916 99.2789 886.332 Q102.358 881.726 108.168 881.726 Z" fill="#000000" fill-rule="evenodd" fill-opacity="1" /><path clip-path="url(#clip480)" d="M54.7421 639.933 L62.381 639.933 L62.381 613.568 L54.0708 615.234 L54.0708 610.975 L62.3347 609.309 L67.0106 609.309 L67.0106 639.933 L74.6494 639.933 L74.6494 643.869 L54.7421 643.869 L54.7421 639.933 Z" fill="#000000" fill-rule="evenodd" fill-opacity="1" /><path clip-path="url(#clip480)" d="M84.0938 637.989 L88.978 637.989 L88.978 643.869 L84.0938 643.869 L84.0938 637.989 Z" fill="#000000" fill-rule="evenodd" fill-opacity="1" /><path clip-path="url(#clip480)" d="M99.2095 609.309 L117.566 609.309 L117.566 613.244 L103.492 613.244 L103.492 621.716 Q104.51 621.369 105.529 621.207 Q106.547 621.021 107.566 621.021 Q113.353 621.021 116.733 624.193 Q120.112 627.364 120.112 632.781 Q120.112 638.359 116.64 641.461 Q113.168 644.54 106.848 644.54 Q104.672 644.54 102.404 644.169 Q100.159 643.799 97.7511 643.058 L97.7511 638.359 Q99.8345 639.494 102.057 640.049 Q104.279 640.605 106.756 640.605 Q110.76 640.605 113.098 638.498 Q115.436 636.392 115.436 632.781 Q115.436 629.17 113.098 627.063 Q110.76 624.957 106.756 624.957 Q104.881 624.957 103.006 625.373 Q101.154 625.79 99.2095 626.67 L99.2095 609.309 Z" fill="#000000" fill-rule="evenodd" fill-opacity="1" /><path clip-path="url(#clip480)" d="M56.9643 366.891 L73.2837 366.891 L73.2837 370.826 L51.3393 370.826 L51.3393 366.891 Q54.0014 364.136 58.5847 359.507 Q63.1911 354.854 64.3717 353.511 Q66.617 350.988 67.4967 349.252 Q68.3994 347.493 68.3994 345.803 Q68.3994 343.049 66.455 341.312 Q64.5337 339.576 61.4319 339.576 Q59.2328 339.576 56.7791 340.34 Q54.3486 341.104 51.5708 342.655 L51.5708 337.933 Q54.3949 336.799 56.8486 336.22 Q59.3023 335.641 61.3393 335.641 Q66.7096 335.641 69.9041 338.326 Q73.0985 341.011 73.0985 345.502 Q73.0985 347.632 72.2883 349.553 Q71.5013 351.451 69.3948 354.044 Q68.8161 354.715 65.7143 357.933 Q62.6124 361.127 56.9643 366.891 Z" fill="#000000" fill-rule="evenodd" fill-opacity="1" /><path clip-path="url(#clip480)" d="M83.0984 364.947 L87.9827 364.947 L87.9827 370.826 L83.0984 370.826 L83.0984 364.947 Z" fill="#000000" fill-rule="evenodd" fill-opacity="1" /><path clip-path="url(#clip480)" d="M108.168 339.345 Q104.557 339.345 102.728 342.91 Q100.922 346.451 100.922 353.581 Q100.922 360.687 102.728 364.252 Q104.557 367.794 108.168 367.794 Q111.802 367.794 113.608 364.252 Q115.436 360.687 115.436 353.581 Q115.436 346.451 113.608 342.91 Q111.802 339.345 108.168 339.345 M108.168 335.641 Q113.978 335.641 117.033 340.248 Q120.112 344.831 120.112 353.581 Q120.112 362.308 117.033 366.914 Q113.978 371.497 108.168 371.497 Q102.358 371.497 99.2789 366.914 Q96.2234 362.308 96.2234 353.581 Q96.2234 344.831 99.2789 340.248 Q102.358 335.641 108.168 335.641 Z" fill="#000000" fill-rule="evenodd" fill-opacity="1" /><path clip-path="url(#clip480)" d="M57.9597 93.8486 L74.279 93.8486 L74.279 97.7837 L52.3347 97.7837 L52.3347 93.8486 Q54.9967 91.094 59.58 86.4644 Q64.1865 81.8116 65.367 80.469 Q67.6124 77.9459 68.492 76.2098 Q69.3948 74.4505 69.3948 72.7607 Q69.3948 70.0061 67.4504 68.27 Q65.5291 66.5339 62.4272 66.5339 Q60.2282 66.5339 57.7745 67.2978 Q55.344 68.0617 52.5662 69.6126 L52.5662 64.8904 Q55.3903 63.7561 57.8439 63.1774 Q60.2976 62.5987 62.3347 62.5987 Q67.705 62.5987 70.8994 65.2839 Q74.0939 67.9691 74.0939 72.4598 Q74.0939 74.5894 73.2837 76.5107 Q72.4966 78.4088 70.3902 81.0014 Q69.8115 81.6727 66.7096 84.8903 Q63.6078 88.0847 57.9597 93.8486 Z" fill="#000000" fill-rule="evenodd" fill-opacity="1" /><path clip-path="url(#clip480)" d="M84.0938 91.9041 L88.978 91.9041 L88.978 97.7837 L84.0938 97.7837 L84.0938 91.9041 Z" fill="#000000" fill-rule="evenodd" fill-opacity="1" /><path clip-path="url(#clip480)" d="M99.2095 63.2237 L117.566 63.2237 L117.566 67.1589 L103.492 67.1589 L103.492 75.6311 Q104.51 75.2839 105.529 75.1218 Q106.547 74.9366 107.566 74.9366 Q113.353 74.9366 116.733 78.1079 Q120.112 81.2792 120.112 86.6958 Q120.112 92.2745 116.64 95.3764 Q113.168 98.455 106.848 98.455 Q104.672 98.455 102.404 98.0847 Q100.159 97.7143 97.7511 96.9736 L97.7511 92.2745 Q99.8345 93.4088 102.057 93.9643 Q104.279 94.5199 106.756 94.5199 Q110.76 94.5199 113.098 92.4134 Q115.436 90.3069 115.436 86.6958 Q115.436 83.0847 113.098 80.9783 Q110.76 78.8718 106.756 78.8718 Q104.881 78.8718 103.006 79.2885 Q101.154 79.7051 99.2095 80.5848 L99.2095 63.2237 Z" fill="#000000" fill-rule="evenodd" fill-opacity="1" /><polyline clip-path="url(#clip482)" style="stroke:#009af9; stroke-linecap:butt; stroke-linejoin:round; stroke-width:4; stroke-opacity:1; fill:none" points="
  2290.59,1445.72 2288.78,1425.94 2283.36,1406.28 2274.38,1386.89 2261.88,1367.87 2245.95,1349.36 2226.7,1331.48 2204.24,1314.33 2178.72,1298.04 2150.32,1282.7 
  2119.2,1268.43 2085.58,1255.3 2049.67,1243.41 2011.71,1232.83 1971.94,1223.63 1930.61,1215.87 1888.01,1209.6 1844.39,1204.86 1800.06,1201.68 1755.29,1200.09 
  1710.37,1200.09 1665.6,1201.68 1621.26,1204.86 1577.65,1209.6 1535.04,1215.87 1493.72,1223.63 1453.95,1232.83 1415.99,1243.41 1380.08,1255.3 1346.46,1268.43 
  1315.34,1282.7 1286.93,1298.04 1261.42,1314.33 1238.96,1331.48 1219.7,1349.36 1203.77,1367.87 1191.28,1386.89 1182.29,1406.28 1176.88,1425.94 1175.07,1445.72 
  
  "/>
<polyline clip-path="url(#clip482)" style="stroke:#e26f46; stroke-linecap:butt; stroke-linejoin:round; stroke-width:4; stroke-opacity:1; fill:none" points="
  2156.63,1445.72 2156.49,1428.64 2156.04,1411.63 2155.3,1394.74 2154.27,1378.02 2152.95,1361.54 2151.33,1345.34 2149.42,1329.5 2147.22,1314.05 2144.73,1299.04 
  2141.95,1284.54 2138.89,1270.57 2135.54,1257.19 2131.92,1244.42 2128.01,1232.31 2123.84,1220.89 2119.38,1210.18 2114.66,1200.21 2109.68,1190.99 2104.43,1182.55 
  2098.92,1174.89 2093.15,1168.02 2087.14,1161.94 2080.88,1156.66 2074.37,1152.15 2067.63,1148.42 2060.66,1145.45 2053.45,1143.22 2046.02,1141.7 2038.38,1140.88 
  2030.52,1140.71 2022.45,1141.18 2014.18,1142.24 2005.72,1143.86 1997.07,1145.98 1988.23,1148.58 1979.21,1151.6 1970.02,1155 1960.67,1158.73 1951.16,1162.74 
  1941.49,1166.97 1931.68,1171.38 1921.73,1175.93 1911.65,1180.54 1901.45,1185.19 1891.13,1189.82 1880.69,1194.38 1870.16,1198.82 1859.53,1203.11 1848.81,1207.19 
  1838.01,1211.04 1827.13,1214.62 1816.19,1217.88 1805.2,1220.81 1794.15,1223.37 1783.06,1225.54 1771.93,1227.3 1760.78,1228.63 1749.61,1229.53 1738.42,1229.98 
  1727.23,1229.98 1716.05,1229.53 1704.88,1228.63 1693.72,1227.3 1682.6,1225.54 1671.51,1223.37 1660.46,1220.81 1649.46,1217.88 1638.52,1214.62 1627.65,1211.04 
  1616.85,1207.19 1606.13,1203.11 1595.5,1198.82 1584.96,1194.38 1574.53,1189.82 1564.21,1185.19 1554,1180.54 1543.92,1175.93 1533.97,1171.38 1524.16,1166.97 
  1514.5,1162.74 1504.99,1158.73 1495.63,1155 1486.45,1151.6 1477.43,1148.58 1468.59,1145.98 1459.94,1143.86 1451.47,1142.24 1443.2,1141.18 1435.14,1140.71 
  1427.28,1140.88 1419.63,1141.7 1412.21,1143.22 1405,1145.45 1398.03,1148.42 1391.28,1152.15 1384.78,1156.66 1378.52,1161.94 1372.5,1168.02 1366.74,1174.89 
  1361.23,1182.55 1355.98,1190.99 1350.99,1200.21 1346.27,1210.18 1341.82,1220.89 1337.64,1232.31 1333.74,1244.42 1330.11,1257.19 1326.77,1270.57 1323.71,1284.54 
  1320.93,1299.04 1318.44,1314.05 1316.24,1329.5 1314.33,1345.34 1312.71,1361.54 1311.38,1378.02 1310.35,1394.74 1309.61,1411.63 1309.17,1428.64 1309.02,1445.72 
  
  "/>
<polyline clip-path="url(#clip482)" style="stroke:#3da44d; stroke-linecap:butt; stroke-linejoin:round; stroke-width:4; stroke-opacity:1; fill:none" points="
  2121.81,1445.72 2121.81,1426.21 2121.81,1406.72 2121.81,1387.23 2121.81,1367.76 2121.81,1348.3 2121.8,1328.87 2121.8,1309.47 2121.8,1290.1 2121.79,1270.76 
  2121.79,1251.47 2121.78,1232.23 2121.78,1213.03 2121.77,1193.9 2121.77,1174.82 2121.76,1155.81 2121.75,1136.87 2121.74,1118 2121.74,1099.21 2121.73,1080.5 
  2121.72,1061.88 2121.71,1043.35 2121.7,1024.91 2121.69,1006.58 2121.68,988.344 2121.66,970.22 2121.65,952.208 2121.64,934.312 2121.63,916.536 2121.61,898.883 
  2121.6,881.358 2121.58,863.964 2121.57,846.705 2121.55,829.585 2121.54,812.607 2121.52,795.775 2121.5,779.092 2121.49,762.561 2121.47,746.187 2121.45,729.971 
  2121.43,713.918 2121.41,698.031 2121.39,682.311 2121.37,666.764 2121.35,651.39 2121.33,636.194 2121.31,621.177 2121.29,606.343 2121.26,591.694 2121.24,577.232 
  2121.22,562.96 2121.19,548.88 2121.17,534.994 2121.14,521.306 2121.12,507.815 2121.09,494.525 2121.07,481.438 2121.04,468.555 2121.01,455.878 2120.98,443.409 
  2120.96,431.148 2120.93,419.099 2120.9,407.261 2120.87,395.637 2120.84,384.227 2120.81,373.033 2120.78,362.055 2120.74,351.296 2120.71,340.754 2120.68,330.432 
  2120.65,320.33 2120.61,310.448 2120.58,300.787 2120.54,291.348 2120.51,282.13 2120.47,273.135 2120.44,264.362 2120.4,255.812 2120.37,247.483 2120.33,239.377 
  2120.29,231.494 2120.25,223.832 2120.21,216.392 2120.17,209.174 2120.13,202.176 2120.09,195.399 2120.05,188.841 2120.01,182.503 2119.97,176.383 2119.93,170.48 
  2119.89,164.795 2119.84,159.324 2119.8,154.069 2119.76,149.027 2119.71,144.198 2119.67,139.58 2119.62,135.172 2119.57,130.972 2119.53,126.98 2119.48,123.194 
  2119.43,119.611 2119.39,116.232 2119.34,113.054 2119.29,110.075 2119.24,107.293 2119.19,104.708 2119.14,102.316 2119.09,100.117 2119.04,98.1082 2118.99,96.2876 
  2118.94,94.6532 2118.88,93.2031 2118.83,91.9351 2118.78,90.8471 2118.72,89.937 2118.67,89.2026 2118.61,88.6416 2118.56,88.2517 2118.5,88.0307 2118.45,87.9763 
  2118.39,88.086 2118.33,88.3576 2118.27,88.7886 2118.22,89.3765 2118.16,90.119 2118.1,91.0136 2118.04,92.0578 2117.98,93.249 2117.92,94.5848 2117.86,96.0626 
  2117.8,97.68 2117.73,99.4342 2117.67,101.323 2117.61,103.343 2117.54,105.493 2117.48,107.769 2117.42,110.169 2117.35,112.691 2117.29,115.332 2117.22,118.088 
  2117.15,120.959 2117.09,123.94 2117.02,127.03 2116.95,130.226 2116.89,133.525 2116.82,136.924 2116.75,140.422 2116.68,144.016 2116.61,147.702 2116.54,151.479 
  2116.47,155.344 2116.4,159.294 2116.32,163.327 2116.25,167.441 2116.18,171.632 2116.11,175.899 2116.03,180.24 2115.96,184.65 2115.88,189.13 2115.81,193.675 
  2115.73,198.283 2115.66,202.953 2115.58,207.682 2115.5,212.467 2115.43,217.306 2115.35,222.198 2115.27,227.14 2115.19,232.129 2115.11,237.164 2115.03,242.242 
  2114.95,247.361 2114.87,252.52 2114.79,257.715 2114.71,262.946 2114.63,268.21 2114.54,273.505 2114.46,278.829 2114.38,284.181 2114.29,289.557 2114.21,294.958 
  2114.12,300.38 2114.04,305.822 2113.95,311.282 2113.86,316.759 2113.78,322.25 2113.69,327.755 2113.6,333.271 2113.51,338.796 2113.43,344.33 2113.34,349.871 
  2113.25,355.417 2113.16,360.967 2113.07,366.519 2112.98,372.072 2112.88,377.625 2112.79,383.176 2112.7,388.724 2112.61,394.267 2112.51,399.805 2112.42,405.336 
  2112.33,410.859 2112.23,416.372 2112.14,421.876 2112.04,427.368 2111.94,432.847 2111.85,438.313 2111.75,443.764 2111.65,449.2 2111.56,454.62 2111.46,460.022 
  2111.36,465.406 2111.26,470.771 2111.16,476.116 2111.06,481.44 2110.96,486.743 2110.86,492.023 2110.75,497.281 2110.65,502.514 2110.55,507.724 2110.45,512.909 
  2110.34,518.068 2110.24,523.2 2110.13,528.307 2110.03,533.386 2109.92,538.437 2109.82,543.46 2109.71,548.454 2109.61,553.419 2109.5,558.354 2109.39,563.26 
  2109.28,568.135 2109.17,572.979 2109.06,577.792 2108.96,582.574 2108.85,587.325 2108.73,592.043 2108.62,596.729 2108.51,601.383 2108.4,606.004 2108.29,610.592 
  2108.18,615.147 2108.06,619.669 2107.95,624.158 2107.83,628.613 2107.72,633.035 2107.61,637.423 2107.49,641.777 2107.37,646.098 2107.26,650.384 2107.14,654.636 
  2107.02,658.855 2106.91,663.04 2106.79,667.19 2106.67,671.307 2106.55,675.39 2106.43,679.438 2106.31,683.453 2106.19,687.434 2106.07,691.382 2105.95,695.295 
  2105.82,699.175 2105.7,703.022 2105.58,706.835 2105.46,710.615 2105.33,714.362 2105.21,718.076 2105.08,721.757 2104.96,725.405 2104.83,729.021 2104.71,732.605 
  2104.58,736.156 2104.45,739.675 2104.33,743.162 2104.2,746.617 2104.07,750.041 2103.94,753.434 2103.81,756.796 2103.68,760.127 2103.55,763.427 2103.42,766.696 
  2103.29,769.935 2103.16,773.145 2103.03,776.324 2102.89,779.474 2102.76,782.595 2102.63,785.686 2102.49,788.749 2102.36,791.783 2102.23,794.789 2102.09,797.766 
  2101.96,800.716 2101.82,803.638 2101.68,806.533 2101.55,809.4 2101.41,812.241 2101.27,815.055 2101.13,817.842 2100.99,820.604 2100.85,823.34 2100.72,826.05 
  2100.58,828.734 2100.43,831.394 2100.29,834.029 2100.15,836.639 2100.01,839.225 2099.87,841.786 2099.73,844.324 2099.58,846.838 2099.44,849.329 2099.29,851.797 
  2099.15,854.243 2099,856.665 2098.86,859.065 2098.71,861.444 2098.57,863.8 2098.42,866.135 2098.27,868.448 2098.13,870.741 2097.98,873.012 2097.83,875.263 
  2097.68,877.494 2097.53,879.704 2097.38,881.894 2097.23,884.065 2097.08,886.217 2096.93,888.349 2096.78,890.462 2096.62,892.557 2096.47,894.632 2096.32,896.69 
  2096.16,898.73 2096.01,900.751 2095.86,902.755 2095.7,904.742 2095.55,906.711 2095.39,908.663 2095.23,910.599 2095.08,912.517 2094.92,914.42 2094.76,916.306 
  2094.61,918.176 2094.45,920.03 2094.29,921.869 2094.13,923.692 2093.97,925.5 2093.81,927.293 2093.65,929.071 2093.49,930.835 2093.33,932.583 2093.16,934.318 
  2093,936.038 2092.84,937.744 2092.68,939.437 2092.51,941.116 2092.35,942.781 2092.18,944.433 2092.02,946.072 2091.85,947.697 2091.69,949.31 2091.52,950.911 
  2091.35,952.498 2091.19,954.074 2091.02,955.637 2090.85,957.188 2090.68,958.727 2090.51,960.254 2090.34,961.769 2090.17,963.273 2090,964.766 2089.83,966.248 
  2089.66,967.718 2089.49,969.177 2089.32,970.626 2089.15,972.063 2088.97,973.49 2088.8,974.907 2088.63,976.313 2088.45,977.709 2088.28,979.095 2088.1,980.471 
  2087.93,981.837 2087.75,983.193 2087.57,984.54 2087.4,985.877 2087.22,987.205 2087.04,988.523 2086.86,989.832 2086.69,991.132 2086.51,992.423 2086.33,993.705 
  2086.15,994.978 2085.97,996.242 2085.79,997.498 2085.61,998.746 2085.42,999.984 2085.24,1001.21 2085.06,1002.44 2084.88,1003.65 2084.69,1004.86 2084.51,1006.06 
  2084.33,1007.25 2084.14,1008.43 2083.96,1009.6 2083.77,1010.77 2083.58,1011.93 2083.4,1013.08 2083.21,1014.22 2083.02,1015.36 2082.84,1016.49 2082.65,1017.61 
  2082.46,1018.73 2082.27,1019.84 2082.08,1020.94 2081.89,1022.03 2081.7,1023.12 2081.51,1024.2 2081.32,1025.28 2081.13,1026.35 2080.94,1027.41 2080.75,1028.46 
  2080.55,1029.51 2080.36,1030.55 2080.17,1031.59 2079.97,1032.62 2079.78,1033.64 2079.58,1034.66 2079.39,1035.67 2079.19,1036.67 2079,1037.67 2078.8,1038.66 
  2078.6,1039.65 2078.4,1040.63 2078.21,1041.61 2078.01,1042.58 2077.81,1043.54 2077.61,1044.5 2077.41,1045.46 2077.21,1046.4 2077.01,1047.35 2076.81,1048.28 
  2076.61,1049.21 2076.41,1050.14 2076.21,1051.06 2076,1051.98 2075.8,1052.89 2075.6,1053.8 2075.39,1054.7 2075.19,1055.59 2074.98,1056.48 2074.78,1057.37 
  2074.57,1058.25 2074.37,1059.13 2074.16,1060 2073.96,1060.86 2073.75,1061.73 2073.54,1062.58 2073.33,1063.44 2073.12,1064.28 2072.92,1065.13 2072.71,1065.97 
  2072.5,1066.8 2072.29,1067.63 2072.08,1068.46 2071.87,1069.28 2071.65,1070.1 2071.44,1070.91 2071.23,1071.72 2071.02,1072.52 2070.81,1073.32 2070.59,1074.12 
  2070.38,1074.91 2070.16,1075.7 2069.95,1076.48 2069.74,1077.26 2069.52,1078.03 2069.3,1078.81 2069.09,1079.57 2068.87,1080.34 2068.65,1081.1 2068.44,1081.85 
  2068.22,1082.61 2068,1083.35 2067.78,1084.1 2067.56,1084.84 2067.34,1085.58 2067.12,1086.31 2066.9,1087.04 2066.68,1087.77 2066.46,1088.49 2066.24,1089.21 
  2066.02,1089.93 2065.8,1090.64 2065.57,1091.35 2065.35,1092.05 2065.13,1092.75 2064.9,1093.45 2064.68,1094.15 2064.45,1094.84 2064.23,1095.53 2064,1096.21 
  2063.78,1096.89 2063.55,1097.57 2063.32,1098.25 2063.1,1098.92 2062.87,1099.59 2062.64,1100.25 2062.41,1100.92 2062.18,1101.57 2061.95,1102.23 2061.72,1102.88 
  2061.49,1103.53 2061.26,1104.18 2061.03,1104.83 2060.8,1105.47 2060.57,1106.1 2060.34,1106.74 2060.11,1107.37 2059.87,1108 2059.64,1108.63 2059.41,1109.25 
  2059.17,1109.87 2058.94,1110.49 2058.7,1111.1 2058.47,1111.72 2058.23,1112.33 2058,1112.93 2057.76,1113.54 2057.52,1114.14 2057.29,1114.74 2057.05,1115.33 
  2056.81,1115.92 2056.57,1116.51 2056.33,1117.1 2056.09,1117.69 2055.85,1118.27 2055.61,1118.85 2055.37,1119.43 2055.13,1120 2054.89,1120.57 2054.65,1121.14 
  2054.41,1121.71 2054.17,1122.28 2053.92,1122.84 2053.68,1123.4 2053.44,1123.95 2053.19,1124.51 2052.95,1125.06 2052.7,1125.61 2052.46,1126.16 2052.21,1126.71 
  2051.97,1127.25 2051.72,1127.79 2051.47,1128.33 2051.23,1128.86 2050.98,1129.4 2050.73,1129.93 2050.48,1130.46 2050.23,1130.98 2049.98,1131.51 2049.74,1132.03 
  2049.49,1132.55 2049.24,1133.07 2048.98,1133.59 2048.73,1134.1 2048.48,1134.61 2048.23,1135.12 2047.98,1135.63 2047.73,1136.13 2047.47,1136.64 2047.22,1137.14 
  2046.97,1137.64 2046.71,1138.13 2046.46,1138.63 2046.2,1139.12 2045.95,1139.61 2045.69,1140.1 2045.44,1140.59 2045.18,1141.07 2044.92,1141.55 2044.67,1142.03 
  2044.41,1142.51 2044.15,1142.99 2043.89,1143.46 2043.63,1143.94 2043.37,1144.41 2043.12,1144.88 2042.86,1145.34 2042.6,1145.81 2042.33,1146.27 2042.07,1146.73 
  2041.81,1147.19 2041.55,1147.65 2041.29,1148.11 2041.03,1148.56 2040.76,1149.01 2040.5,1149.46 2040.24,1149.91 2039.97,1150.36 2039.71,1150.8 2039.44,1151.25 
  2039.18,1151.69 2038.91,1152.13 2038.65,1152.57 2038.38,1153 2038.11,1153.44 2037.85,1153.87 2037.58,1154.3 2037.31,1154.73 2037.04,1155.16 2036.78,1155.58 
  2036.51,1156.01 2036.24,1156.43 2035.97,1156.85 2035.7,1157.27 2035.43,1157.69 2035.16,1158.11 2034.89,1158.52 2034.62,1158.93 2034.34,1159.35 2034.07,1159.76 
  2033.8,1160.16 2033.53,1160.57 2033.25,1160.98 2032.98,1161.38 2032.71,1161.78 2032.43,1162.18 2032.16,1162.58 2031.88,1162.98 2031.61,1163.37 2031.33,1163.77 
  2031.05,1164.16 2030.78,1164.55 2030.5,1164.94 2030.22,1165.33 2029.95,1165.72 2029.67,1166.1 2029.39,1166.49 2029.11,1166.87 2028.83,1167.25 2028.55,1167.63 
  2028.27,1168.01 2027.99,1168.39 2027.71,1168.76 2027.43,1169.14 2027.15,1169.51 2026.87,1169.88 2026.59,1170.25 2026.3,1170.62 2026.02,1170.99 2025.74,1171.35 
  2025.45,1171.72 2025.17,1172.08 2024.89,1172.44 2024.6,1172.8 2024.32,1173.16 2024.03,1173.52 2023.75,1173.88 2023.46,1174.23 2023.17,1174.59 2022.89,1174.94 
  2022.6,1175.29 2022.31,1175.64 2022.03,1175.99 2021.74,1176.34 2021.45,1176.68 2021.16,1177.03 2020.87,1177.37 2020.58,1177.72 2020.29,1178.06 2020,1178.4 
  2019.71,1178.74 2019.42,1179.07 2019.13,1179.41 2018.84,1179.75 2018.55,1180.08 2018.25,1180.41 2017.96,1180.74 2017.67,1181.07 2017.37,1181.4 2017.08,1181.73 
  2016.79,1182.06 2016.49,1182.38 2016.2,1182.71 2015.9,1183.03 2015.61,1183.35 2015.31,1183.68 2015.02,1184 2014.72,1184.31 2014.42,1184.63 2014.13,1184.95 
  2013.83,1185.26 2013.53,1185.58 2013.23,1185.89 2012.93,1186.2 2012.63,1186.52 2012.34,1186.83 2012.04,1187.13 2011.74,1187.44 2011.44,1187.75 2011.13,1188.05 
  2010.83,1188.36 2010.53,1188.66 2010.23,1188.96 2009.93,1189.27 2009.63,1189.57 2009.32,1189.87 2009.02,1190.16 2008.72,1190.46 2008.41,1190.76 2008.11,1191.05 
  2007.81,1191.35 2007.5,1191.64 2007.2,1191.93 2006.89,1192.22 2006.59,1192.51 2006.28,1192.8 2005.97,1193.09 2005.67,1193.38 2005.36,1193.66 2005.05,1193.95 
  2004.74,1194.23 2004.44,1194.51 2004.13,1194.8 2003.82,1195.08 2003.51,1195.36 2003.2,1195.64 2002.89,1195.92 2002.58,1196.19 2002.27,1196.47 2001.96,1196.75 
  2001.65,1197.02 2001.34,1197.29 2001.03,1197.57 2000.72,1197.84 2000.4,1198.11 2000.09,1198.38 1999.78,1198.65 1999.46,1198.92 1999.15,1199.18 1998.84,1199.45 
  1998.52,1199.71 1998.21,1199.98 1997.89,1200.24 1997.58,1200.51 1997.26,1200.77 1996.95,1201.03 1996.63,1201.29 1996.31,1201.55 1996,1201.81 1995.68,1202.06 
  1995.36,1202.32 1995.04,1202.57 1994.73,1202.83 1994.41,1203.08 1994.09,1203.34 1993.77,1203.59 1993.45,1203.84 1993.13,1204.09 1992.81,1204.34 1992.49,1204.59 
  1992.17,1204.84 1991.85,1205.09 1991.53,1205.33 1991.21,1205.58 1990.88,1205.82 1990.56,1206.07 1990.24,1206.31 1989.92,1206.55 1989.59,1206.79 1989.27,1207.03 
  1988.95,1207.27 1988.62,1207.51 1988.3,1207.75 1987.97,1207.99 1987.65,1208.23 1987.32,1208.46 1987,1208.7 1986.67,1208.93 1986.34,1209.17 1986.02,1209.4 
  1985.69,1209.63 1985.36,1209.86 1985.04,1210.09 1984.71,1210.32 1984.38,1210.55 1984.05,1210.78 1983.72,1211.01 1983.39,1211.23 1983.06,1211.46 1982.73,1211.69 
  1982.4,1211.91 1982.07,1212.14 1981.74,1212.36 1981.41,1212.58 1981.08,1212.8 1980.75,1213.02 1980.42,1213.24 1980.09,1213.46 1979.75,1213.68 1979.42,1213.9 
  1979.09,1214.12 1978.75,1214.33 1978.42,1214.55 1978.09,1214.77 1977.75,1214.98 1977.42,1215.19 1977.08,1215.41 1976.75,1215.62 1976.41,1215.83 1976.08,1216.04 
  1975.74,1216.25 1975.4,1216.46 1975.07,1216.67 1974.73,1216.88 1974.39,1217.09 1974.06,1217.3 1973.72,1217.5 1973.38,1217.71 1973.04,1217.91 1972.7,1218.12 
  1972.36,1218.32 1972.03,1218.52 1971.69,1218.73 1971.35,1218.93 1971.01,1219.13 1970.66,1219.33 1970.32,1219.53 1969.98,1219.73 1969.64,1219.93 1969.3,1220.13 
  1968.96,1220.32 1968.62,1220.52 1968.27,1220.72 1967.93,1220.91 1967.59,1221.11 1967.24,1221.3 1966.9,1221.49 1966.56,1221.69 1966.21,1221.88 1965.87,1222.07 
  1965.52,1222.26 1965.18,1222.45 1964.83,1222.64 1964.49,1222.83 1964.14,1223.02 1963.8,1223.21 1963.45,1223.39 1963.1,1223.58 1962.75,1223.77 1962.41,1223.95 
  1962.06,1224.14 1961.71,1224.32 1961.36,1224.51 1961.02,1224.69 1960.67,1224.87 1960.32,1225.05 1959.97,1225.23 1959.62,1225.42 1959.27,1225.6 1958.92,1225.78 
  1958.57,1225.95 1958.22,1226.13 1957.87,1226.31 1957.52,1226.49 1957.16,1226.67 1956.81,1226.84 1956.46,1227.02 1956.11,1227.19 1955.75,1227.37 1955.4,1227.54 
  1955.05,1227.71 1954.7,1227.89 1954.34,1228.06 1953.99,1228.23 1953.63,1228.4 1953.28,1228.57 1952.92,1228.74 1952.57,1228.91 1952.21,1229.08 1951.86,1229.25 
  1951.5,1229.42 1951.15,1229.59 1950.79,1229.75 1950.43,1229.92 1950.08,1230.09 1949.72,1230.25 1949.36,1230.42 1949,1230.58 1948.65,1230.74 1948.29,1230.91 
  1947.93,1231.07 1947.57,1231.23 1947.21,1231.39 1946.85,1231.55 1946.49,1231.72 1946.13,1231.88 1945.77,1232.04 1945.41,1232.19 1945.05,1232.35 1944.69,1232.51 
  1944.33,1232.67 1943.97,1232.83 1943.61,1232.98 1943.24,1233.14 1942.88,1233.29 1942.52,1233.45 1942.16,1233.6 1941.79,1233.76 1941.43,1233.91 1941.07,1234.06 
  1940.7,1234.22 1940.34,1234.37 1939.98,1234.52 1939.61,1234.67 1939.25,1234.82 1938.88,1234.97 1938.52,1235.12 1938.15,1235.27 1937.79,1235.42 1937.42,1235.57 
  1937.05,1235.72 1936.69,1235.86 1936.32,1236.01 1935.95,1236.16 1935.59,1236.3 1935.22,1236.45 1934.85,1236.59 1934.48,1236.74 1934.11,1236.88 1933.75,1237.02 
  1933.38,1237.17 1933.01,1237.31 1932.64,1237.45 1932.27,1237.59 1931.9,1237.74 1931.53,1237.88 1931.16,1238.02 1930.79,1238.16 1930.42,1238.3 1930.05,1238.43 
  1929.68,1238.57 1929.31,1238.71 1928.93,1238.85 1928.56,1238.99 1928.19,1239.12 1927.82,1239.26 1927.45,1239.39 1927.07,1239.53 1926.7,1239.67 1926.33,1239.8 
  1925.95,1239.93 1925.58,1240.07 1925.2,1240.2 1924.83,1240.33 1924.46,1240.47 1924.08,1240.6 1923.71,1240.73 1923.33,1240.86 1922.96,1240.99 1922.58,1241.12 
  1922.2,1241.25 1921.83,1241.38 1921.45,1241.51 1921.08,1241.64 1920.7,1241.77 1920.32,1241.89 1919.94,1242.02 1919.57,1242.15 1919.19,1242.27 1918.81,1242.4 
  1918.43,1242.53 1918.05,1242.65 1917.68,1242.78 1917.3,1242.9 1916.92,1243.02 1916.54,1243.15 1916.16,1243.27 1915.78,1243.39 1915.4,1243.52 1915.02,1243.64 
  1914.64,1243.76 1914.26,1243.88 1913.88,1244 1913.5,1244.12 1913.11,1244.24 1912.73,1244.36 1912.35,1244.48 1911.97,1244.6 1911.59,1244.72 1911.21,1244.83 
  1910.82,1244.95 1910.44,1245.07 1910.06,1245.19 1909.67,1245.3 1909.29,1245.42 1908.91,1245.53 1908.52,1245.65 1908.14,1245.76 1907.75,1245.88 1907.37,1245.99 
  1906.98,1246.11 1906.6,1246.22 1906.21,1246.33 1905.83,1246.45 1905.44,1246.56 1905.06,1246.67 1904.67,1246.78 1904.28,1246.89 1903.9,1247 1903.51,1247.11 
  1903.12,1247.22 1902.74,1247.33 1902.35,1247.44 1901.96,1247.55 1901.58,1247.66 1901.19,1247.77 1900.8,1247.87 1900.41,1247.98 1900.02,1248.09 1899.63,1248.19 
  1899.24,1248.3 1898.86,1248.41 1898.47,1248.51 1898.08,1248.62 1897.69,1248.72 1897.3,1248.83 1896.91,1248.93 1896.52,1249.03 1896.13,1249.14 1895.73,1249.24 
  1895.34,1249.34 1894.95,1249.45 1894.56,1249.55 1894.17,1249.65 1893.78,1249.75 1893.39,1249.85 1892.99,1249.95 1892.6,1250.05 1892.21,1250.15 1891.82,1250.25 
  1891.42,1250.35 1891.03,1250.45 1890.64,1250.55 1890.24,1250.65 1889.85,1250.74 1889.46,1250.84 1889.06,1250.94 1888.67,1251.03 1888.27,1251.13 1887.88,1251.23 
  1887.48,1251.32 1887.09,1251.42 1886.69,1251.51 1886.3,1251.61 1885.9,1251.7 1885.51,1251.8 1885.11,1251.89 1884.71,1251.98 1884.32,1252.08 1883.92,1252.17 
  1883.52,1252.26 1883.13,1252.35 1882.73,1252.44 1882.33,1252.54 1881.94,1252.63 1881.54,1252.72 1881.14,1252.81 1880.74,1252.9 1880.34,1252.99 1879.95,1253.08 
  1879.55,1253.17 1879.15,1253.25 1878.75,1253.34 1878.35,1253.43 1877.95,1253.52 1877.55,1253.61 1877.15,1253.69 1876.75,1253.78 1876.35,1253.87 1875.95,1253.95 
  1875.55,1254.04 1875.15,1254.12 1874.75,1254.21 1874.35,1254.29 1873.95,1254.38 1873.55,1254.46 1873.15,1254.55 1872.74,1254.63 1872.34,1254.71 1871.94,1254.8 
  1871.54,1254.88 1871.14,1254.96 1870.73,1255.04 1870.33,1255.13 1869.93,1255.21 1869.53,1255.29 1869.12,1255.37 1868.72,1255.45 1868.32,1255.53 1867.91,1255.61 
  1867.51,1255.69 1867.1,1255.77 1866.7,1255.85 1866.3,1255.93 1865.89,1256 1865.49,1256.08 1865.08,1256.16 1864.68,1256.24 1864.27,1256.32 1863.87,1256.39 
  1863.46,1256.47 1863.06,1256.54 1862.65,1256.62 1862.24,1256.7 1861.84,1256.77 1861.43,1256.85 1861.03,1256.92 1860.62,1257 1860.21,1257.07 1859.81,1257.14 
  1859.4,1257.22 1858.99,1257.29 1858.59,1257.36 1858.18,1257.44 1857.77,1257.51 1857.36,1257.58 1856.95,1257.65 1856.55,1257.72 1856.14,1257.8 1855.73,1257.87 
  1855.32,1257.94 1854.91,1258.01 1854.5,1258.08 1854.1,1258.15 1853.69,1258.22 1853.28,1258.29 1852.87,1258.36 1852.46,1258.42 1852.05,1258.49 1851.64,1258.56 
  1851.23,1258.63 1850.82,1258.7 1850.41,1258.76 1850,1258.83 1849.59,1258.9 1849.18,1258.96 1848.77,1259.03 1848.36,1259.1 1847.94,1259.16 1847.53,1259.23 
  1847.12,1259.29 1846.71,1259.36 1846.3,1259.42 1845.89,1259.48 1845.47,1259.55 1845.06,1259.61 1844.65,1259.68 1844.24,1259.74 1843.83,1259.8 1843.41,1259.86 
  1843,1259.93 1842.59,1259.99 1842.17,1260.05 1841.76,1260.11 1841.35,1260.17 1840.93,1260.23 1840.52,1260.29 1840.11,1260.35 1839.69,1260.41 1839.28,1260.47 
  1838.87,1260.53 1838.45,1260.59 1838.04,1260.65 1837.62,1260.71 1837.21,1260.77 1836.79,1260.83 1836.38,1260.88 1835.96,1260.94 1835.55,1261 1835.13,1261.06 
  1834.72,1261.11 1834.3,1261.17 1833.89,1261.23 1833.47,1261.28 1833.05,1261.34 1832.64,1261.39 1832.22,1261.45 1831.81,1261.5 1831.39,1261.56 1830.97,1261.61 
  1830.56,1261.67 1830.14,1261.72 1829.72,1261.77 1829.31,1261.83 1828.89,1261.88 1828.47,1261.93 1828.06,1261.99 1827.64,1262.04 1827.22,1262.09 1826.8,1262.14 
  1826.38,1262.19 1825.97,1262.25 1825.55,1262.3 1825.13,1262.35 1824.71,1262.4 1824.29,1262.45 1823.88,1262.5 1823.46,1262.55 1823.04,1262.6 1822.62,1262.65 
  1822.2,1262.7 1821.78,1262.74 1821.36,1262.79 1820.94,1262.84 1820.52,1262.89 1820.11,1262.94 1819.69,1262.98 1819.27,1263.03 1818.85,1263.08 1818.43,1263.12 
  1818.01,1263.17 1817.59,1263.22 1817.17,1263.26 1816.75,1263.31 1816.33,1263.35 1815.91,1263.4 1815.48,1263.44 1815.06,1263.49 1814.64,1263.53 1814.22,1263.58 
  1813.8,1263.62 1813.38,1263.67 1812.96,1263.71 1812.54,1263.75 1812.12,1263.79 1811.69,1263.84 1811.27,1263.88 1810.85,1263.92 1810.43,1263.96 1810.01,1264.01 
  1809.59,1264.05 1809.16,1264.09 1808.74,1264.13 1808.32,1264.17 1807.9,1264.21 1807.48,1264.25 1807.05,1264.29 1806.63,1264.33 1806.21,1264.37 1805.78,1264.41 
  1805.36,1264.45 1804.94,1264.49 1804.52,1264.53 1804.09,1264.56 1803.67,1264.6 1803.25,1264.64 1802.82,1264.68 1802.4,1264.71 1801.98,1264.75 1801.55,1264.79 
  1801.13,1264.83 1800.7,1264.86 1800.28,1264.9 1799.86,1264.93 1799.43,1264.97 1799.01,1265 1798.58,1265.04 1798.16,1265.07 1797.74,1265.11 1797.31,1265.14 
  1796.89,1265.18 1796.46,1265.21 1796.04,1265.25 1795.61,1265.28 1795.19,1265.31 1794.76,1265.35 1794.34,1265.38 1793.91,1265.41 1793.49,1265.44 1793.06,1265.47 
  1792.64,1265.51 1792.21,1265.54 1791.79,1265.57 1791.36,1265.6 1790.94,1265.63 1790.51,1265.66 1790.08,1265.69 1789.66,1265.72 1789.23,1265.75 1788.81,1265.78 
  1788.38,1265.81 1787.95,1265.84 1787.53,1265.87 1787.1,1265.9 1786.68,1265.93 1786.25,1265.96 1785.82,1265.98 1785.4,1266.01 1784.97,1266.04 1784.54,1266.07 
  1784.12,1266.09 1783.69,1266.12 1783.26,1266.15 1782.84,1266.17 1782.41,1266.2 1781.98,1266.23 1781.56,1266.25 1781.13,1266.28 1780.7,1266.3 1780.27,1266.33 
  1779.85,1266.35 1779.42,1266.38 1778.99,1266.4 1778.56,1266.42 1778.14,1266.45 1777.71,1266.47 1777.28,1266.5 1776.85,1266.52 1776.43,1266.54 1776,1266.56 
  1775.57,1266.59 1775.14,1266.61 1774.72,1266.63 1774.29,1266.65 1773.86,1266.67 1773.43,1266.7 1773,1266.72 1772.58,1266.74 1772.15,1266.76 1771.72,1266.78 
  1771.29,1266.8 1770.86,1266.82 1770.43,1266.84 1770.01,1266.86 1769.58,1266.88 1769.15,1266.9 1768.72,1266.92 1768.29,1266.93 1767.86,1266.95 1767.43,1266.97 
  1767,1266.99 1766.58,1267.01 1766.15,1267.02 1765.72,1267.04 1765.29,1267.06 1764.86,1267.07 1764.43,1267.09 1764,1267.11 1763.57,1267.12 1763.14,1267.14 
  1762.71,1267.16 1762.29,1267.17 1761.86,1267.19 1761.43,1267.2 1761,1267.22 1760.57,1267.23 1760.14,1267.24 1759.71,1267.26 1759.28,1267.27 1758.85,1267.29 
  1758.42,1267.3 1757.99,1267.31 1757.56,1267.33 1757.13,1267.34 1756.7,1267.35 1756.27,1267.36 1755.84,1267.37 1755.41,1267.39 1754.98,1267.4 1754.55,1267.41 
  1754.12,1267.42 1753.7,1267.43 1753.27,1267.44 1752.84,1267.45 1752.41,1267.46 1751.98,1267.47 1751.55,1267.48 1751.12,1267.49 1750.69,1267.5 1750.26,1267.51 
  1749.83,1267.52 1749.4,1267.53 1748.97,1267.54 1748.54,1267.55 1748.11,1267.55 1747.68,1267.56 1747.25,1267.57 1746.81,1267.58 1746.38,1267.58 1745.95,1267.59 
  1745.52,1267.6 1745.09,1267.6 1744.66,1267.61 1744.23,1267.62 1743.8,1267.62 1743.37,1267.63 1742.94,1267.63 1742.51,1267.64 1742.08,1267.64 1741.65,1267.65 
  1741.22,1267.65 1740.79,1267.66 1740.36,1267.66 1739.93,1267.66 1739.5,1267.67 1739.07,1267.67 1738.64,1267.67 1738.21,1267.68 1737.78,1267.68 1737.35,1267.68 
  1736.92,1267.68 1736.49,1267.69 1736.06,1267.69 1735.63,1267.69 1735.2,1267.69 1734.77,1267.69 1734.34,1267.69 1733.9,1267.69 1733.47,1267.69 1733.04,1267.69 
  1732.61,1267.69 1732.18,1267.69 1731.75,1267.69 1731.32,1267.69 1730.89,1267.69 1730.46,1267.69 1730.03,1267.69 1729.6,1267.69 1729.17,1267.69 1728.74,1267.68 
  1728.31,1267.68 1727.88,1267.68 1727.45,1267.68 1727.02,1267.67 1726.59,1267.67 1726.16,1267.67 1725.73,1267.66 1725.3,1267.66 1724.87,1267.66 1724.44,1267.65 
  1724.01,1267.65 1723.57,1267.64 1723.14,1267.64 1722.71,1267.63 1722.28,1267.63 1721.85,1267.62 1721.42,1267.62 1720.99,1267.61 1720.56,1267.6 1720.13,1267.6 
  1719.7,1267.59 1719.27,1267.58 1718.84,1267.58 1718.41,1267.57 1717.98,1267.56 1717.55,1267.55 1717.12,1267.55 1716.69,1267.54 1716.26,1267.53 1715.83,1267.52 
  1715.4,1267.51 1714.97,1267.5 1714.54,1267.49 1714.11,1267.48 1713.68,1267.47 1713.25,1267.46 1712.82,1267.45 1712.39,1267.44 1711.96,1267.43 1711.53,1267.42 
  1711.1,1267.41 1710.67,1267.4 1710.24,1267.39 1709.81,1267.37 1709.38,1267.36 1708.95,1267.35 1708.52,1267.34 1708.09,1267.33 1707.67,1267.31 1707.24,1267.3 
  1706.81,1267.29 1706.38,1267.27 1705.95,1267.26 1705.52,1267.24 1705.09,1267.23 1704.66,1267.22 1704.23,1267.2 1703.8,1267.19 1703.37,1267.17 1702.94,1267.16 
  1702.51,1267.14 1702.08,1267.12 1701.65,1267.11 1701.23,1267.09 1700.8,1267.07 1700.37,1267.06 1699.94,1267.04 1699.51,1267.02 1699.08,1267.01 1698.65,1266.99 
  1698.22,1266.97 1697.79,1266.95 1697.37,1266.93 1696.94,1266.92 1696.51,1266.9 1696.08,1266.88 1695.65,1266.86 1695.22,1266.84 1694.8,1266.82 1694.37,1266.8 
  1693.94,1266.78 1693.51,1266.76 1693.08,1266.74 1692.65,1266.72 1692.23,1266.7 1691.8,1266.67 1691.37,1266.65 1690.94,1266.63 1690.51,1266.61 1690.09,1266.59 
  1689.66,1266.56 1689.23,1266.54 1688.8,1266.52 1688.37,1266.5 1687.95,1266.47 1687.52,1266.45 1687.09,1266.42 1686.66,1266.4 1686.24,1266.38 1685.81,1266.35 
  1685.38,1266.33 1684.96,1266.3 1684.53,1266.28 1684.1,1266.25 1683.67,1266.23 1683.25,1266.2 1682.82,1266.17 1682.39,1266.15 1681.97,1266.12 1681.54,1266.09 
  1681.11,1266.07 1680.69,1266.04 1680.26,1266.01 1679.83,1265.98 1679.41,1265.96 1678.98,1265.93 1678.55,1265.9 1678.13,1265.87 1677.7,1265.84 1677.28,1265.81 
  1676.85,1265.78 1676.42,1265.75 1676,1265.72 1675.57,1265.69 1675.15,1265.66 1674.72,1265.63 1674.3,1265.6 1673.87,1265.57 1673.45,1265.54 1673.02,1265.51 
  1672.59,1265.47 1672.17,1265.44 1671.74,1265.41 1671.32,1265.38 1670.89,1265.35 1670.47,1265.31 1670.04,1265.28 1669.62,1265.25 1669.19,1265.21 1668.77,1265.18 
  1668.35,1265.14 1667.92,1265.11 1667.5,1265.07 1667.07,1265.04 1666.65,1265 1666.22,1264.97 1665.8,1264.93 1665.38,1264.9 1664.95,1264.86 1664.53,1264.83 
  1664.1,1264.79 1663.68,1264.75 1663.26,1264.71 1662.83,1264.68 1662.41,1264.64 1661.99,1264.6 1661.56,1264.56 1661.14,1264.53 1660.72,1264.49 1660.3,1264.45 
  1659.87,1264.41 1659.45,1264.37 1659.03,1264.33 1658.6,1264.29 1658.18,1264.25 1657.76,1264.21 1657.34,1264.17 1656.91,1264.13 1656.49,1264.09 1656.07,1264.05 
  1655.65,1264.01 1655.23,1263.96 1654.81,1263.92 1654.38,1263.88 1653.96,1263.84 1653.54,1263.79 1653.12,1263.75 1652.7,1263.71 1652.28,1263.67 1651.86,1263.62 
  1651.43,1263.58 1651.01,1263.53 1650.59,1263.49 1650.17,1263.44 1649.75,1263.4 1649.33,1263.35 1648.91,1263.31 1648.49,1263.26 1648.07,1263.22 1647.65,1263.17 
  1647.23,1263.12 1646.81,1263.08 1646.39,1263.03 1645.97,1262.98 1645.55,1262.94 1645.13,1262.89 1644.71,1262.84 1644.29,1262.79 1643.88,1262.74 1643.46,1262.7 
  1643.04,1262.65 1642.62,1262.6 1642.2,1262.55 1641.78,1262.5 1641.36,1262.45 1640.94,1262.4 1640.53,1262.35 1640.11,1262.3 1639.69,1262.25 1639.27,1262.19 
  1638.85,1262.14 1638.44,1262.09 1638.02,1262.04 1637.6,1261.99 1637.18,1261.93 1636.77,1261.88 1636.35,1261.83 1635.93,1261.77 1635.52,1261.72 1635.1,1261.67 
  1634.68,1261.61 1634.27,1261.56 1633.85,1261.5 1633.43,1261.45 1633.02,1261.39 1632.6,1261.34 1632.19,1261.28 1631.77,1261.23 1631.36,1261.17 1630.94,1261.11 
  1630.52,1261.06 1630.11,1261 1629.69,1260.94 1629.28,1260.88 1628.86,1260.83 1628.45,1260.77 1628.03,1260.71 1627.62,1260.65 1627.21,1260.59 1626.79,1260.53 
  1626.38,1260.47 1625.96,1260.41 1625.55,1260.35 1625.14,1260.29 1624.72,1260.23 1624.31,1260.17 1623.9,1260.11 1623.48,1260.05 1623.07,1259.99 1622.66,1259.93 
  1622.24,1259.86 1621.83,1259.8 1621.42,1259.74 1621.01,1259.68 1620.59,1259.61 1620.18,1259.55 1619.77,1259.48 1619.36,1259.42 1618.95,1259.36 1618.54,1259.29 
  1618.12,1259.23 1617.71,1259.16 1617.3,1259.1 1616.89,1259.03 1616.48,1258.96 1616.07,1258.9 1615.66,1258.83 1615.25,1258.76 1614.84,1258.7 1614.43,1258.63 
  1614.02,1258.56 1613.61,1258.49 1613.2,1258.42 1612.79,1258.36 1612.38,1258.29 1611.97,1258.22 1611.56,1258.15 1611.15,1258.08 1610.74,1258.01 1610.34,1257.94 
  1609.93,1257.87 1609.52,1257.8 1609.11,1257.72 1608.7,1257.65 1608.29,1257.58 1607.89,1257.51 1607.48,1257.44 1607.07,1257.36 1606.66,1257.29 1606.26,1257.22 
  1605.85,1257.14 1605.44,1257.07 1605.04,1257 1604.63,1256.92 1604.22,1256.85 1603.82,1256.77 1603.41,1256.7 1603.01,1256.62 1602.6,1256.54 1602.2,1256.47 
  1601.79,1256.39 1601.38,1256.32 1600.98,1256.24 1600.57,1256.16 1600.17,1256.08 1599.77,1256 1599.36,1255.93 1598.96,1255.85 1598.55,1255.77 1598.15,1255.69 
  1597.75,1255.61 1597.34,1255.53 1596.94,1255.45 1596.53,1255.37 1596.13,1255.29 1595.73,1255.21 1595.33,1255.13 1594.92,1255.04 1594.52,1254.96 1594.12,1254.88 
  1593.72,1254.8 1593.31,1254.71 1592.91,1254.63 1592.51,1254.55 1592.11,1254.46 1591.71,1254.38 1591.31,1254.29 1590.91,1254.21 1590.51,1254.12 1590.11,1254.04 
  1589.71,1253.95 1589.31,1253.87 1588.91,1253.78 1588.51,1253.69 1588.11,1253.61 1587.71,1253.52 1587.31,1253.43 1586.91,1253.34 1586.51,1253.25 1586.11,1253.17 
  1585.71,1253.08 1585.31,1252.99 1584.92,1252.9 1584.52,1252.81 1584.12,1252.72 1583.72,1252.63 1583.32,1252.54 1582.93,1252.44 1582.53,1252.35 1582.13,1252.26 
  1581.74,1252.17 1581.34,1252.08 1580.94,1251.98 1580.55,1251.89 1580.15,1251.8 1579.76,1251.7 1579.36,1251.61 1578.96,1251.51 1578.57,1251.42 1578.17,1251.32 
  1577.78,1251.23 1577.38,1251.13 1576.99,1251.03 1576.6,1250.94 1576.2,1250.84 1575.81,1250.74 1575.41,1250.65 1575.02,1250.55 1574.63,1250.45 1574.23,1250.35 
  1573.84,1250.25 1573.45,1250.15 1573.06,1250.05 1572.66,1249.95 1572.27,1249.85 1571.88,1249.75 1571.49,1249.65 1571.1,1249.55 1570.7,1249.45 1570.31,1249.34 
  1569.92,1249.24 1569.53,1249.14 1569.14,1249.03 1568.75,1248.93 1568.36,1248.83 1567.97,1248.72 1567.58,1248.62 1567.19,1248.51 1566.8,1248.41 1566.41,1248.3 
  1566.02,1248.19 1565.64,1248.09 1565.25,1247.98 1564.86,1247.87 1564.47,1247.77 1564.08,1247.66 1563.69,1247.55 1563.31,1247.44 1562.92,1247.33 1562.53,1247.22 
  1562.15,1247.11 1561.76,1247 1561.37,1246.89 1560.99,1246.78 1560.6,1246.67 1560.21,1246.56 1559.83,1246.45 1559.44,1246.33 1559.06,1246.22 1558.67,1246.11 
  1558.29,1245.99 1557.9,1245.88 1557.52,1245.76 1557.14,1245.65 1556.75,1245.53 1556.37,1245.42 1555.98,1245.3 1555.6,1245.19 1555.22,1245.07 1554.83,1244.95 
  1554.45,1244.83 1554.07,1244.72 1553.69,1244.6 1553.31,1244.48 1552.92,1244.36 1552.54,1244.24 1552.16,1244.12 1551.78,1244 1551.4,1243.88 1551.02,1243.76 
  1550.64,1243.64 1550.26,1243.52 1549.88,1243.39 1549.5,1243.27 1549.12,1243.15 1548.74,1243.02 1548.36,1242.9 1547.98,1242.78 1547.6,1242.65 1547.22,1242.53 
  1546.85,1242.4 1546.47,1242.27 1546.09,1242.15 1545.71,1242.02 1545.34,1241.89 1544.96,1241.77 1544.58,1241.64 1544.21,1241.51 1543.83,1241.38 1543.45,1241.25 
  1543.08,1241.12 1542.7,1240.99 1542.33,1240.86 1541.95,1240.73 1541.58,1240.6 1541.2,1240.47 1540.83,1240.33 1540.45,1240.2 1540.08,1240.07 1539.7,1239.93 
  1539.33,1239.8 1538.96,1239.67 1538.58,1239.53 1538.21,1239.39 1537.84,1239.26 1537.47,1239.12 1537.09,1238.99 1536.72,1238.85 1536.35,1238.71 1535.98,1238.57 
  1535.61,1238.43 1535.24,1238.3 1534.87,1238.16 1534.5,1238.02 1534.13,1237.88 1533.76,1237.74 1533.39,1237.59 1533.02,1237.45 1532.65,1237.31 1532.28,1237.17 
  1531.91,1237.02 1531.54,1236.88 1531.17,1236.74 1530.81,1236.59 1530.44,1236.45 1530.07,1236.3 1529.7,1236.16 1529.34,1236.01 1528.97,1235.86 1528.6,1235.72 
  1528.24,1235.57 1527.87,1235.42 1527.51,1235.27 1527.14,1235.12 1526.78,1234.97 1526.41,1234.82 1526.05,1234.67 1525.68,1234.52 1525.32,1234.37 1524.95,1234.22 
  1524.59,1234.06 1524.23,1233.91 1523.86,1233.76 1523.5,1233.6 1523.14,1233.45 1522.77,1233.29 1522.41,1233.14 1522.05,1232.98 1521.69,1232.83 1521.33,1232.67 
  1520.97,1232.51 1520.61,1232.35 1520.24,1232.19 1519.88,1232.04 1519.52,1231.88 1519.16,1231.72 1518.8,1231.55 1518.45,1231.39 1518.09,1231.23 1517.73,1231.07 
  1517.37,1230.91 1517.01,1230.74 1516.65,1230.58 1516.3,1230.42 1515.94,1230.25 1515.58,1230.09 1515.22,1229.92 1514.87,1229.75 1514.51,1229.59 1514.15,1229.42 
  1513.8,1229.25 1513.44,1229.08 1513.09,1228.91 1512.73,1228.74 1512.38,1228.57 1512.02,1228.4 1511.67,1228.23 1511.32,1228.06 1510.96,1227.89 1510.61,1227.71 
  1510.26,1227.54 1509.9,1227.37 1509.55,1227.19 1509.2,1227.02 1508.85,1226.84 1508.49,1226.67 1508.14,1226.49 1507.79,1226.31 1507.44,1226.13 1507.09,1225.95 
  1506.74,1225.78 1506.39,1225.6 1506.04,1225.42 1505.69,1225.23 1505.34,1225.05 1504.99,1224.87 1504.64,1224.69 1504.29,1224.51 1503.95,1224.32 1503.6,1224.14 
  1503.25,1223.95 1502.9,1223.77 1502.56,1223.58 1502.21,1223.39 1501.86,1223.21 1501.52,1223.02 1501.17,1222.83 1500.82,1222.64 1500.48,1222.45 1500.13,1222.26 
  1499.79,1222.07 1499.44,1221.88 1499.1,1221.69 1498.76,1221.49 1498.41,1221.3 1498.07,1221.11 1497.73,1220.91 1497.38,1220.72 1497.04,1220.52 1496.7,1220.32 
  1496.36,1220.13 1496.02,1219.93 1495.67,1219.73 1495.33,1219.53 1494.99,1219.33 1494.65,1219.13 1494.31,1218.93 1493.97,1218.73 1493.63,1218.52 1493.29,1218.32 
  1492.95,1218.12 1492.62,1217.91 1492.28,1217.71 1491.94,1217.5 1491.6,1217.3 1491.26,1217.09 1490.93,1216.88 1490.59,1216.67 1490.25,1216.46 1489.92,1216.25 
  1489.58,1216.04 1489.24,1215.83 1488.91,1215.62 1488.57,1215.41 1488.24,1215.19 1487.9,1214.98 1487.57,1214.77 1487.24,1214.55 1486.9,1214.33 1486.57,1214.12 
  1486.24,1213.9 1485.9,1213.68 1485.57,1213.46 1485.24,1213.24 1484.91,1213.02 1484.58,1212.8 1484.24,1212.58 1483.91,1212.36 1483.58,1212.14 1483.25,1211.91 
  1482.92,1211.69 1482.59,1211.46 1482.26,1211.23 1481.93,1211.01 1481.61,1210.78 1481.28,1210.55 1480.95,1210.32 1480.62,1210.09 1480.29,1209.86 1479.97,1209.63 
  1479.64,1209.4 1479.31,1209.17 1478.99,1208.93 1478.66,1208.7 1478.33,1208.46 1478.01,1208.23 1477.68,1207.99 1477.36,1207.75 1477.03,1207.51 1476.71,1207.27 
  1476.39,1207.03 1476.06,1206.79 1475.74,1206.55 1475.42,1206.31 1475.09,1206.07 1474.77,1205.82 1474.45,1205.58 1474.13,1205.33 1473.81,1205.09 1473.49,1204.84 
  1473.17,1204.59 1472.85,1204.34 1472.53,1204.09 1472.21,1203.84 1471.89,1203.59 1471.57,1203.34 1471.25,1203.08 1470.93,1202.83 1470.61,1202.57 1470.29,1202.32 
  1469.98,1202.06 1469.66,1201.81 1469.34,1201.55 1469.03,1201.29 1468.71,1201.03 1468.39,1200.77 1468.08,1200.51 1467.76,1200.24 1467.45,1199.98 1467.13,1199.71 
  1466.82,1199.45 1466.51,1199.18 1466.19,1198.92 1465.88,1198.65 1465.57,1198.38 1465.25,1198.11 1464.94,1197.84 1464.63,1197.57 1464.32,1197.29 1464.01,1197.02 
  1463.7,1196.75 1463.39,1196.47 1463.07,1196.19 1462.76,1195.92 1462.46,1195.64 1462.15,1195.36 1461.84,1195.08 1461.53,1194.8 1461.22,1194.51 1460.91,1194.23 
  1460.6,1193.95 1460.3,1193.66 1459.99,1193.38 1459.68,1193.09 1459.38,1192.8 1459.07,1192.51 1458.77,1192.22 1458.46,1191.93 1458.16,1191.64 1457.85,1191.35 
  1457.55,1191.05 1457.24,1190.76 1456.94,1190.46 1456.64,1190.16 1456.33,1189.87 1456.03,1189.57 1455.73,1189.27 1455.43,1188.96 1455.12,1188.66 1454.82,1188.36 
  1454.52,1188.05 1454.22,1187.75 1453.92,1187.44 1453.62,1187.13 1453.32,1186.83 1453.02,1186.52 1452.72,1186.2 1452.43,1185.89 1452.13,1185.58 1451.83,1185.26 
  1451.53,1184.95 1451.23,1184.63 1450.94,1184.31 1450.64,1184 1450.35,1183.68 1450.05,1183.35 1449.75,1183.03 1449.46,1182.71 1449.16,1182.38 1448.87,1182.06 
  1448.58,1181.73 1448.28,1181.4 1447.99,1181.07 1447.7,1180.74 1447.4,1180.41 1447.11,1180.08 1446.82,1179.75 1446.53,1179.41 1446.24,1179.07 1445.95,1178.74 
  1445.66,1178.4 1445.37,1178.06 1445.08,1177.72 1444.79,1177.37 1444.5,1177.03 1444.21,1176.68 1443.92,1176.34 1443.63,1175.99 1443.34,1175.64 1443.06,1175.29 
  1442.77,1174.94 1442.48,1174.59 1442.2,1174.23 1441.91,1173.88 1441.63,1173.52 1441.34,1173.16 1441.06,1172.8 1440.77,1172.44 1440.49,1172.08 1440.2,1171.72 
  1439.92,1171.35 1439.64,1170.99 1439.35,1170.62 1439.07,1170.25 1438.79,1169.88 1438.51,1169.51 1438.23,1169.14 1437.95,1168.76 1437.67,1168.39 1437.38,1168.01 
  1437.11,1167.63 1436.83,1167.25 1436.55,1166.87 1436.27,1166.49 1435.99,1166.1 1435.71,1165.72 1435.43,1165.33 1435.16,1164.94 1434.88,1164.55 1434.6,1164.16 
  1434.33,1163.77 1434.05,1163.37 1433.78,1162.98 1433.5,1162.58 1433.23,1162.18 1432.95,1161.78 1432.68,1161.38 1432.4,1160.98 1432.13,1160.57 1431.86,1160.16 
  1431.59,1159.76 1431.31,1159.35 1431.04,1158.93 1430.77,1158.52 1430.5,1158.11 1430.23,1157.69 1429.96,1157.27 1429.69,1156.85 1429.42,1156.43 1429.15,1156.01 
  1428.88,1155.58 1428.61,1155.16 1428.34,1154.73 1428.08,1154.3 1427.81,1153.87 1427.54,1153.44 1427.28,1153 1427.01,1152.57 1426.74,1152.13 1426.48,1151.69 
  1426.21,1151.25 1425.95,1150.8 1425.68,1150.36 1425.42,1149.91 1425.16,1149.46 1424.89,1149.01 1424.63,1148.56 1424.37,1148.11 1424.11,1147.65 1423.84,1147.19 
  1423.58,1146.73 1423.32,1146.27 1423.06,1145.81 1422.8,1145.34 1422.54,1144.88 1422.28,1144.41 1422.02,1143.94 1421.76,1143.46 1421.51,1142.99 1421.25,1142.51 
  1420.99,1142.03 1420.73,1141.55 1420.48,1141.07 1420.22,1140.59 1419.96,1140.1 1419.71,1139.61 1419.45,1139.12 1419.2,1138.63 1418.94,1138.13 1418.69,1137.64 
  1418.44,1137.14 1418.18,1136.64 1417.93,1136.13 1417.68,1135.63 1417.43,1135.12 1417.17,1134.61 1416.92,1134.1 1416.67,1133.59 1416.42,1133.07 1416.17,1132.55 
  1415.92,1132.03 1415.67,1131.51 1415.42,1130.98 1415.17,1130.46 1414.93,1129.93 1414.68,1129.4 1414.43,1128.86 1414.18,1128.33 1413.94,1127.79 1413.69,1127.25 
  1413.45,1126.71 1413.2,1126.16 1412.95,1125.61 1412.71,1125.06 1412.47,1124.51 1412.22,1123.95 1411.98,1123.4 1411.73,1122.84 1411.49,1122.28 1411.25,1121.71 
  1411.01,1121.14 1410.77,1120.57 1410.52,1120 1410.28,1119.43 1410.04,1118.85 1409.8,1118.27 1409.56,1117.69 1409.32,1117.1 1409.09,1116.51 1408.85,1115.92 
  1408.61,1115.33 1408.37,1114.74 1408.13,1114.14 1407.9,1113.54 1407.66,1112.93 1407.43,1112.33 1407.19,1111.72 1406.95,1111.1 1406.72,1110.49 1406.49,1109.87 
  1406.25,1109.25 1406.02,1108.63 1405.78,1108 1405.55,1107.37 1405.32,1106.74 1405.09,1106.1 1404.86,1105.47 1404.62,1104.83 1404.39,1104.18 1404.16,1103.53 
  1403.93,1102.88 1403.7,1102.23 1403.47,1101.57 1403.25,1100.92 1403.02,1100.25 1402.79,1099.59 1402.56,1098.92 1402.33,1098.25 1402.11,1097.57 1401.88,1096.89 
  1401.65,1096.21 1401.43,1095.53 1401.2,1094.84 1400.98,1094.15 1400.75,1093.45 1400.53,1092.75 1400.31,1092.05 1400.08,1091.35 1399.86,1090.64 1399.64,1089.93 
  1399.42,1089.21 1399.2,1088.49 1398.97,1087.77 1398.75,1087.04 1398.53,1086.31 1398.31,1085.58 1398.09,1084.84 1397.87,1084.1 1397.66,1083.35 1397.44,1082.61 
  1397.22,1081.85 1397,1081.1 1396.79,1080.34 1396.57,1079.57 1396.35,1078.81 1396.14,1078.03 1395.92,1077.26 1395.71,1076.48 1395.49,1075.7 1395.28,1074.91 
  1395.06,1074.12 1394.85,1073.32 1394.64,1072.52 1394.43,1071.72 1394.21,1070.91 1394,1070.1 1393.79,1069.28 1393.58,1068.46 1393.37,1067.63 1393.16,1066.8 
  1392.95,1065.97 1392.74,1065.13 1392.53,1064.28 1392.32,1063.44 1392.12,1062.58 1391.91,1061.73 1391.7,1060.86 1391.5,1060 1391.29,1059.13 1391.08,1058.25 
  1390.88,1057.37 1390.67,1056.48 1390.47,1055.59 1390.26,1054.7 1390.06,1053.8 1389.86,1052.89 1389.65,1051.98 1389.45,1051.06 1389.25,1050.14 1389.05,1049.21 
  1388.85,1048.28 1388.65,1047.35 1388.45,1046.4 1388.25,1045.46 1388.05,1044.5 1387.85,1043.54 1387.65,1042.58 1387.45,1041.61 1387.25,1040.63 1387.06,1039.65 
  1386.86,1038.66 1386.66,1037.67 1386.47,1036.67 1386.27,1035.67 1386.07,1034.66 1385.88,1033.64 1385.69,1032.62 1385.49,1031.59 1385.3,1030.55 1385.1,1029.51 
  1384.91,1028.46 1384.72,1027.41 1384.53,1026.35 1384.34,1025.28 1384.15,1024.2 1383.95,1023.12 1383.76,1022.03 1383.57,1020.94 1383.39,1019.84 1383.2,1018.73 
  1383.01,1017.61 1382.82,1016.49 1382.63,1015.36 1382.45,1014.22 1382.26,1013.08 1382.07,1011.93 1381.89,1010.77 1381.7,1009.6 1381.52,1008.43 1381.33,1007.25 
  1381.15,1006.06 1380.96,1004.86 1380.78,1003.65 1380.6,1002.44 1380.41,1001.21 1380.23,999.984 1380.05,998.746 1379.87,997.498 1379.69,996.242 1379.51,994.978 
  1379.33,993.705 1379.15,992.423 1378.97,991.132 1378.79,989.832 1378.61,988.523 1378.44,987.205 1378.26,985.877 1378.08,984.54 1377.91,983.193 1377.73,981.837 
  1377.55,980.471 1377.38,979.095 1377.21,977.709 1377.03,976.313 1376.86,974.907 1376.68,973.49 1376.51,972.063 1376.34,970.626 1376.17,969.177 1376,967.718 
  1375.82,966.248 1375.65,964.766 1375.48,963.273 1375.31,961.769 1375.14,960.254 1374.97,958.727 1374.81,957.188 1374.64,955.637 1374.47,954.074 1374.3,952.498 
  1374.14,950.911 1373.97,949.31 1373.8,947.697 1373.64,946.072 1373.47,944.433 1373.31,942.781 1373.15,941.116 1372.98,939.437 1372.82,937.744 1372.66,936.038 
  1372.49,934.318 1372.33,932.583 1372.17,930.835 1372.01,929.071 1371.85,927.293 1371.69,925.5 1371.53,923.692 1371.37,921.869 1371.21,920.03 1371.05,918.176 
  1370.89,916.306 1370.74,914.42 1370.58,912.517 1370.42,910.599 1370.27,908.663 1370.11,906.711 1369.96,904.742 1369.8,902.755 1369.65,900.751 1369.49,898.73 
  1369.34,896.69 1369.19,894.632 1369.03,892.557 1368.88,890.462 1368.73,888.349 1368.58,886.217 1368.43,884.065 1368.28,881.894 1368.13,879.704 1367.98,877.494 
  1367.83,875.263 1367.68,873.012 1367.53,870.741 1367.38,868.448 1367.24,866.135 1367.09,863.8 1366.94,861.444 1366.8,859.065 1366.65,856.665 1366.51,854.243 
  1366.36,851.797 1366.22,849.329 1366.08,846.838 1365.93,844.324 1365.79,841.786 1365.65,839.225 1365.5,836.639 1365.36,834.029 1365.22,831.394 1365.08,828.734 
  1364.94,826.05 1364.8,823.34 1364.66,820.604 1364.52,817.842 1364.39,815.055 1364.25,812.241 1364.11,809.4 1363.97,806.533 1363.84,803.638 1363.7,800.716 
  1363.57,797.766 1363.43,794.789 1363.3,791.783 1363.16,788.749 1363.03,785.686 1362.9,782.595 1362.76,779.474 1362.63,776.324 1362.5,773.145 1362.37,769.935 
  1362.24,766.696 1362.11,763.427 1361.97,760.127 1361.85,756.796 1361.72,753.434 1361.59,750.041 1361.46,746.617 1361.33,743.162 1361.2,739.675 1361.08,736.156 
  1360.95,732.605 1360.82,729.021 1360.7,725.405 1360.57,721.757 1360.45,718.076 1360.32,714.362 1360.2,710.615 1360.08,706.835 1359.96,703.022 1359.83,699.175 
  1359.71,695.295 1359.59,691.382 1359.47,687.434 1359.35,683.453 1359.23,679.438 1359.11,675.39 1358.99,671.307 1358.87,667.19 1358.75,663.04 1358.63,658.855 
  1358.52,654.636 1358.4,650.384 1358.28,646.098 1358.17,641.777 1358.05,637.423 1357.94,633.035 1357.82,628.613 1357.71,624.158 1357.59,619.669 1357.48,615.147 
  1357.37,610.592 1357.26,606.004 1357.14,601.383 1357.03,596.729 1356.92,592.043 1356.81,587.325 1356.7,582.574 1356.59,577.792 1356.48,572.979 1356.37,568.135 
  1356.27,563.26 1356.16,558.354 1356.05,553.419 1355.94,548.454 1355.84,543.46 1355.73,538.437 1355.63,533.386 1355.52,528.307 1355.42,523.2 1355.31,518.068 
  1355.21,512.909 1355.11,507.724 1355,502.514 1354.9,497.281 1354.8,492.023 1354.7,486.743 1354.6,481.44 1354.5,476.116 1354.4,470.771 1354.3,465.406 
  1354.2,460.022 1354.1,454.62 1354,449.2 1353.91,443.764 1353.81,438.313 1353.71,432.847 1353.62,427.368 1353.52,421.876 1353.43,416.372 1353.33,410.859 
  1353.24,405.336 1353.14,399.805 1353.05,394.267 1352.96,388.724 1352.86,383.176 1352.77,377.625 1352.68,372.072 1352.59,366.519 1352.5,360.967 1352.41,355.417 
  1352.32,349.871 1352.23,344.33 1352.14,338.796 1352.05,333.271 1351.97,327.755 1351.88,322.25 1351.79,316.759 1351.71,311.282 1351.62,305.822 1351.53,300.38 
  1351.45,294.958 1351.37,289.557 1351.28,284.181 1351.2,278.829 1351.11,273.505 1351.03,268.21 1350.95,262.946 1350.87,257.715 1350.79,252.52 1350.71,247.361 
  1350.63,242.242 1350.55,237.164 1350.47,232.129 1350.39,227.14 1350.31,222.198 1350.23,217.306 1350.15,212.467 1350.08,207.682 1350,202.953 1349.92,198.283 
  1349.85,193.675 1349.77,189.13 1349.7,184.65 1349.63,180.24 1349.55,175.899 1349.48,171.632 1349.41,167.441 1349.33,163.327 1349.26,159.294 1349.19,155.344 
  1349.12,151.479 1349.05,147.702 1348.98,144.016 1348.91,140.422 1348.84,136.924 1348.77,133.525 1348.7,130.226 1348.64,127.03 1348.57,123.94 1348.5,120.959 
  1348.44,118.088 1348.37,115.332 1348.31,112.691 1348.24,110.169 1348.18,107.769 1348.11,105.493 1348.05,103.343 1347.99,101.323 1347.92,99.4342 1347.86,97.68 
  1347.8,96.0626 1347.74,94.5848 1347.68,93.249 1347.62,92.0578 1347.56,91.0136 1347.5,90.119 1347.44,89.3765 1347.38,88.7886 1347.33,88.3576 1347.27,88.086 
  1347.21,87.9763 1347.16,88.0307 1347.1,88.2517 1347.04,88.6416 1346.99,89.2026 1346.93,89.937 1346.88,90.8471 1346.83,91.9351 1346.77,93.2031 1346.72,94.6532 
  1346.67,96.2876 1346.62,98.1082 1346.57,100.117 1346.52,102.316 1346.47,104.708 1346.42,107.293 1346.37,110.075 1346.32,113.054 1346.27,116.232 1346.22,119.611 
  1346.18,123.194 1346.13,126.98 1346.08,130.972 1346.04,135.172 1345.99,139.58 1345.95,144.198 1345.9,149.027 1345.86,154.069 1345.81,159.324 1345.77,164.795 
  1345.73,170.48 1345.69,176.383 1345.64,182.503 1345.6,188.841 1345.56,195.399 1345.52,202.176 1345.48,209.174 1345.44,216.392 1345.41,223.832 1345.37,231.494 
  1345.33,239.377 1345.29,247.483 1345.25,255.812 1345.22,264.362 1345.18,273.135 1345.15,282.13 1345.11,291.348 1345.08,300.787 1345.04,310.448 1345.01,320.33 
  1344.98,330.432 1344.94,340.754 1344.91,351.296 1344.88,362.055 1344.85,373.033 1344.82,384.227 1344.79,395.637 1344.76,407.261 1344.73,419.099 1344.7,431.148 
  1344.67,443.409 1344.64,455.878 1344.62,468.555 1344.59,481.438 1344.56,494.525 1344.54,507.815 1344.51,521.306 1344.49,534.994 1344.46,548.88 1344.44,562.96 
  1344.42,577.232 1344.39,591.694 1344.37,606.343 1344.35,621.177 1344.33,636.194 1344.3,651.39 1344.28,666.764 1344.26,682.311 1344.24,698.031 1344.22,713.918 
  1344.21,729.971 1344.19,746.187 1344.17,762.561 1344.15,779.092 1344.14,795.775 1344.12,812.607 1344.1,829.585 1344.09,846.705 1344.07,863.964 1344.06,881.358 
  1344.04,898.883 1344.03,916.536 1344.02,934.312 1344,952.208 1343.99,970.22 1343.98,988.344 1343.97,1006.58 1343.96,1024.91 1343.95,1043.35 1343.94,1061.88 
  1343.93,1080.5 1343.92,1099.21 1343.91,1118 1343.9,1136.87 1343.9,1155.81 1343.89,1174.82 1343.88,1193.9 1343.88,1213.03 1343.87,1232.23 1343.87,1251.47 
  1343.86,1270.76 1343.86,1290.1 1343.86,1309.47 1343.85,1328.87 1343.85,1348.3 1343.85,1367.76 1343.85,1387.23 1343.84,1406.72 1343.84,1426.21 1343.84,1445.72 
  
  "/>
<polyline clip-path="url(#clip482)" style="stroke:#c271d2; stroke-linecap:butt; stroke-linejoin:round; stroke-width:4; stroke-opacity:1; fill:none" points="
  2256.83,1445.72 2256.82,1443.87 2256.78,1442.03 2256.73,1440.19 2256.65,1438.34 2256.56,1436.5 2256.44,1434.66 2256.29,1432.82 2256.13,1430.99 2255.94,1429.15 
  2255.74,1427.32 2255.51,1425.49 2255.26,1423.66 2254.98,1421.83 2254.69,1420.01 2254.37,1418.19 2254.04,1416.37 2253.68,1414.56 2253.3,1412.75 2252.89,1410.95 
  2252.47,1409.15 2252.02,1407.35 2251.55,1405.56 2251.06,1403.77 2250.55,1401.99 2250.02,1400.21 2249.46,1398.44 2248.88,1396.68 2248.29,1394.92 2247.67,1393.16 
  2247.02,1391.42 2246.36,1389.68 2245.68,1387.94 2244.97,1386.22 2244.24,1384.5 2243.49,1382.78 2242.72,1381.08 2241.93,1379.38 2241.11,1377.69 2240.28,1376.01 
  2239.42,1374.34 2238.54,1372.67 2237.64,1371.02 2236.72,1369.37 2235.78,1367.73 2234.81,1366.1 2233.83,1364.49 2232.82,1362.88 2231.79,1361.27 2230.75,1359.68 
  2229.67,1358.1 2228.58,1356.53 2227.47,1354.97 2226.34,1353.42 2225.18,1351.88 2224,1350.36 2222.81,1348.84 2221.59,1347.33 2220.35,1345.84 2219.09,1344.35 
  2217.8,1342.88 2216.5,1341.42 2215.18,1339.97 2213.83,1338.53 2212.47,1337.11 2211.08,1335.69 2209.67,1334.29 2208.24,1332.9 2206.8,1331.53 2205.33,1330.16 
  2203.83,1328.81 2202.32,1327.47 2200.79,1326.15 2199.24,1324.84 2197.67,1323.54 2196.07,1322.25 2194.46,1320.98 2192.82,1319.72 2191.17,1318.47 2189.49,1317.24 
  2187.8,1316.02 2186.08,1314.82 2184.35,1313.63 2182.59,1312.45 2180.81,1311.28 2179.01,1310.13 2177.2,1309 2175.36,1307.88 2173.5,1306.77 2171.62,1305.68 
  2169.73,1304.6 2167.81,1303.53 2165.87,1302.48 2163.91,1301.44 2161.94,1300.42 2159.94,1299.41 2157.92,1298.42 2155.89,1297.44 2153.83,1296.48 2151.76,1295.53 
  2149.66,1294.59 2147.55,1293.67 2145.41,1292.77 2143.26,1291.88 2141.09,1291 2138.89,1290.14 2136.68,1289.29 2134.45,1288.46 2132.2,1287.64 2129.93,1286.84 
  2127.64,1286.05 2125.34,1285.27 2123.01,1284.51 2120.66,1283.77 2118.3,1283.04 2115.92,1282.32 2113.51,1281.62 2111.09,1280.93 2108.65,1280.26 2106.2,1279.6 
  2103.72,1278.96 2101.22,1278.33 2098.71,1277.72 2096.18,1277.12 2093.63,1276.53 2091.06,1275.96 2088.47,1275.4 2085.87,1274.86 2083.24,1274.33 2080.6,1273.81 
  2077.94,1273.31 2075.26,1272.82 2072.57,1272.35 2069.86,1271.89 2067.12,1271.44 2064.38,1271.01 2061.61,1270.59 2058.82,1270.19 2056.02,1269.79 2053.2,1269.42 
  2050.37,1269.05 2047.51,1268.7 2044.64,1268.36 2041.75,1268.04 2038.85,1267.72 2035.92,1267.42 2032.98,1267.14 2030.02,1266.86 2027.05,1266.6 2024.06,1266.35 
  2021.05,1266.12 2018.03,1265.9 2014.98,1265.68 2011.93,1265.49 2008.85,1265.3 2005.76,1265.13 2002.65,1264.96 1999.53,1264.81 1996.39,1264.67 1993.23,1264.55 
  1990.06,1264.43 1986.87,1264.33 1983.66,1264.24 1980.44,1264.16 1977.21,1264.09 1973.95,1264.03 1970.69,1263.98 1967.4,1263.94 1964.1,1263.92 1960.79,1263.9 
  1957.46,1263.9 1954.11,1263.9 1950.75,1263.92 1947.37,1263.95 1943.98,1263.98 1940.57,1264.03 1937.15,1264.09 1933.71,1264.16 1930.26,1264.23 1926.79,1264.32 
  1923.31,1264.41 1919.82,1264.52 1916.3,1264.63 1912.78,1264.76 1909.24,1264.89 1905.68,1265.03 1902.12,1265.18 1898.53,1265.34 1894.94,1265.51 1891.32,1265.69 
  1887.7,1265.87 1884.06,1266.06 1880.41,1266.27 1876.74,1266.47 1873.06,1266.69 1869.37,1266.92 1865.66,1267.15 1861.94,1267.39 1858.2,1267.64 1854.46,1267.9 
  1850.7,1268.16 1846.92,1268.43 1843.14,1268.71 1839.34,1268.99 1835.52,1269.28 1831.7,1269.58 1827.86,1269.88 1824.01,1270.2 1820.15,1270.51 1816.27,1270.84 
  1812.38,1271.17 1808.48,1271.5 1804.57,1271.85 1800.64,1272.19 1796.71,1272.55 1792.76,1272.91 1788.8,1273.27 1784.82,1273.64 1780.84,1274.02 1776.84,1274.4 
  1772.83,1274.79 1768.82,1275.18 1764.79,1275.58 1760.74,1275.98 1756.69,1276.39 1752.63,1276.8 1748.55,1277.21 1744.47,1277.63 1740.37,1278.06 1736.26,1278.49 
  1732.14,1278.92 1728.01,1279.36 1723.88,1279.8 1719.73,1280.24 1715.57,1280.69 1711.4,1281.15 1707.21,1281.6 1703.02,1282.06 1698.82,1282.53 1694.61,1282.99 
  1690.39,1283.46 1686.16,1283.94 1681.92,1284.42 1677.67,1284.9 1673.42,1285.38 1669.15,1285.86 1664.87,1286.35 1660.59,1286.84 1656.29,1287.34 1651.99,1287.84 
  1647.67,1288.33 1643.35,1288.84 1639.02,1289.34 1634.68,1289.85 1630.34,1290.35 1625.98,1290.87 1621.61,1291.38 1617.24,1291.89 1612.86,1292.41 1608.47,1292.93 
  1604.08,1293.45 1599.67,1293.97 1595.26,1294.49 1590.84,1295.02 1586.41,1295.54 1581.98,1296.07 1577.54,1296.6 1573.09,1297.13 1568.63,1297.66 1564.17,1298.2 
  1559.69,1298.73 1555.22,1299.27 1550.73,1299.8 1546.24,1300.34 1541.74,1300.88 1537.24,1301.42 1532.73,1301.96 1528.21,1302.5 1523.69,1303.04 1519.16,1303.58 
  1514.62,1304.12 1510.08,1304.67 1505.54,1305.21 1500.98,1305.75 1496.42,1306.3 1491.86,1306.84 1487.29,1307.39 1482.72,1307.93 1478.14,1308.48 1473.55,1309.02 
  1468.96,1309.57 1464.36,1310.11 1459.76,1310.66 1455.16,1311.2 1450.55,1311.75 1445.94,1312.29 1441.32,1312.84 1436.69,1313.38 1432.07,1313.93 1427.44,1314.47 
  1422.8,1315.01 1418.16,1315.56 1413.52,1316.1 1408.87,1316.64 1404.22,1317.19 1399.57,1317.73 1394.91,1318.27 1390.25,1318.81 1385.58,1319.35 1380.91,1319.89 
  1376.24,1320.43 1371.57,1320.97 1366.89,1321.5 1362.21,1322.04 1357.53,1322.58 1352.85,1323.11 1348.16,1323.65 1343.47,1324.18 1338.78,1324.71 1334.09,1325.24 
  1329.39,1325.78 1324.69,1326.31 1319.99,1326.83 1315.29,1327.36 1310.59,1327.89 1305.88,1328.42 1301.18,1328.94 1296.47,1329.46 1291.76,1329.99 1287.05,1330.51 
  1282.34,1331.03 1277.63,1331.55 1272.92,1332.07 1268.2,1332.59 1263.49,1333.1 1258.77,1333.62 1254.06,1334.13 1249.34,1334.64 1244.63,1335.15 1239.91,1335.66 
  1235.2,1336.17 1230.48,1336.68 1225.76,1337.19 1221.05,1337.69 1216.33,1338.19 1211.62,1338.7 1206.91,1339.2 1202.19,1339.7 1197.48,1340.19 1192.77,1340.69 
  1188.06,1341.19 1183.35,1341.68 1178.64,1342.17 1173.93,1342.66 1169.22,1343.15 1164.52,1343.64 1159.82,1344.13 1155.12,1344.61 1150.42,1345.1 1145.72,1345.58 
  1141.02,1346.06 1136.33,1346.54 1131.64,1347.02 1126.95,1347.5 1122.26,1347.97 1117.58,1348.45 1112.89,1348.92 1108.22,1349.39 1103.54,1349.86 1098.87,1350.33 
  1094.19,1350.79 1089.53,1351.26 1084.86,1351.72 1080.2,1352.18 1075.54,1352.64 1070.89,1353.1 1066.24,1353.56 1061.59,1354.02 1056.95,1354.47 1052.31,1354.92 
  1047.67,1355.38 1043.04,1355.82 1038.42,1356.27 1033.79,1356.72 1029.17,1357.17 1024.56,1357.61 1019.95,1358.05 1015.35,1358.49 1010.74,1358.93 1006.15,1359.37 
  1001.56,1359.81 996.974,1360.24 992.394,1360.68 987.819,1361.11 983.249,1361.54 978.685,1361.97 974.127,1362.39 969.574,1362.82 965.027,1363.25 960.485,1363.67 
  955.95,1364.09 951.421,1364.51 946.897,1364.93 942.38,1365.35 937.87,1365.76 933.365,1366.18 928.868,1366.59 924.376,1367 919.892,1367.41 915.414,1367.82 
  910.943,1368.23 906.48,1368.63 902.023,1369.04 897.573,1369.44 893.131,1369.84 888.696,1370.24 884.269,1370.64 879.849,1371.04 875.437,1371.43 871.033,1371.83 
  866.636,1372.22 862.247,1372.61 857.867,1373 853.494,1373.39 849.13,1373.78 844.774,1374.17 840.427,1374.55 836.088,1374.94 831.757,1375.32 827.435,1375.7 
  823.122,1376.08 818.818,1376.46 814.523,1376.83 810.237,1377.21 805.96,1377.58 801.692,1377.96 797.434,1378.33 793.185,1378.7 788.946,1379.07 784.716,1379.44 
  780.496,1379.8 776.285,1380.17 772.085,1380.53 767.894,1380.9 763.714,1381.26 759.544,1381.62 755.384,1381.98 751.234,1382.34 747.095,1382.69 742.966,1383.05 
  738.847,1383.4 734.74,1383.76 730.643,1384.11 726.557,1384.46 722.482,1384.81 718.418,1385.16 714.365,1385.51 710.324,1385.85 706.293,1386.2 702.274,1386.54 
  698.267,1386.89 694.271,1387.23 690.286,1387.57 686.313,1387.91 682.353,1388.25 678.404,1388.59 674.467,1388.92 670.542,1389.26 666.629,1389.59 662.728,1389.93 
  658.84,1390.26 654.964,1390.59 651.101,1390.92 647.25,1391.25 643.411,1391.58 639.586,1391.9 635.773,1392.23 631.973,1392.55 628.186,1392.88 624.413,1393.2 
  620.652,1393.52 616.904,1393.84 613.17,1394.16 609.449,1394.48 605.742,1394.8 602.048,1395.12 598.368,1395.44 594.701,1395.75 591.048,1396.06 587.409,1396.38 
  583.784,1396.69 580.173,1397 576.576,1397.31 572.993,1397.62 569.425,1397.93 565.87,1398.24 562.33,1398.55 558.805,1398.85 555.294,1399.16 551.798,1399.46 
  548.316,1399.77 544.849,1400.07 541.397,1400.37 537.96,1400.67 534.538,1400.97 531.13,1401.27 527.738,1401.57 524.361,1401.87 521,1402.17 517.654,1402.46 
  514.323,1402.76 511.007,1403.05 507.708,1403.35 504.424,1403.64 501.155,1403.93 497.902,1404.22 494.665,1404.52 491.444,1404.81 488.239,1405.09 485.051,1405.38 
  481.878,1405.67 478.721,1405.96 475.581,1406.25 472.456,1406.53 469.349,1406.82 466.257,1407.1 463.183,1407.38 460.124,1407.67 457.083,1407.95 454.058,1408.23 
  451.05,1408.51 448.059,1408.79 445.084,1409.07 442.127,1409.35 439.187,1409.63 436.263,1409.91 433.357,1410.18 430.468,1410.46 427.597,1410.74 424.742,1411.01 
  421.906,1411.29 419.086,1411.56 416.284,1411.83 413.5,1412.11 410.733,1412.38 407.984,1412.65 405.253,1412.92 402.54,1413.19 399.844,1413.46 397.167,1413.73 
  394.507,1414 391.865,1414.27 389.242,1414.54 386.637,1414.8 384.05,1415.07 381.481,1415.33 378.93,1415.6 376.398,1415.87 373.885,1416.13 371.389,1416.39 
  368.913,1416.66 366.455,1416.92 364.015,1417.18 361.595,1417.44 359.193,1417.71 356.81,1417.97 354.445,1418.23 352.1,1418.49 349.773,1418.75 347.466,1419.01 
  345.178,1419.27 342.908,1419.52 340.658,1419.78 338.427,1420.04 336.216,1420.3 334.023,1420.55 331.85,1420.81 329.697,1421.06 327.563,1421.32 325.448,1421.57 
  323.353,1421.83 321.277,1422.08 319.221,1422.34 317.185,1422.59 315.168,1422.84 313.171,1423.09 311.194,1423.35 309.237,1423.6 307.299,1423.85 305.382,1424.1 
  303.484,1424.35 301.607,1424.6 299.749,1424.85 297.912,1425.1 296.095,1425.35 294.297,1425.6 292.52,1425.85 290.764,1426.09 289.027,1426.34 287.311,1426.59 
  285.615,1426.84 283.94,1427.08 282.285,1427.33 280.65,1427.58 279.036,1427.82 277.443,1428.07 275.87,1428.31 274.317,1428.56 272.785,1428.8 271.274,1429.05 
  269.784,1429.29 268.314,1429.54 266.865,1429.78 265.437,1430.02 264.029,1430.27 262.643,1430.51 261.277,1430.75 259.932,1430.99 258.608,1431.24 257.305,1431.48 
  256.023,1431.72 254.762,1431.96 253.523,1432.2 252.304,1432.44 251.106,1432.69 249.929,1432.93 248.774,1433.17 247.64,1433.41 246.527,1433.65 245.435,1433.89 
  244.364,1434.13 243.315,1434.37 242.286,1434.61 241.28,1434.84 240.294,1435.08 239.33,1435.32 238.387,1435.56 237.466,1435.8 236.566,1436.04 235.687,1436.28 
  234.83,1436.51 233.995,1436.75 233.181,1436.99 232.388,1437.23 231.617,1437.46 230.867,1437.7 230.139,1437.94 229.433,1438.18 228.748,1438.41 228.084,1438.65 
  227.443,1438.89 226.823,1439.12 226.224,1439.36 225.647,1439.59 225.092,1439.83 224.559,1440.07 224.047,1440.3 223.557,1440.54 223.089,1440.77 222.642,1441.01 
  222.217,1441.25 221.814,1441.48 221.433,1441.72 221.073,1441.95 220.735,1442.19 220.419,1442.42 220.125,1442.66 219.852,1442.89 219.601,1443.13 219.372,1443.37 
  219.165,1443.6 218.979,1443.84 218.816,1444.07 218.674,1444.31 218.554,1444.54 218.456,1444.78 218.379,1445.01 218.325,1445.25 218.292,1445.48 218.281,1445.72 
  
  "/>
<path clip-path="url(#clip480)" d="
M229.334 354.418 L712.455 354.418 L712.455 95.2176 L229.334 95.2176  Z
  " fill="#ffffff" fill-rule="evenodd" fill-opacity="1"/>
<polyline clip-path="url(#clip480)" style="stroke:#000000; stroke-linecap:butt; stroke-linejoin:round; stroke-width:4; stroke-opacity:1; fill:none" points="
  229.334,354.418 712.455,354.418 712.455,95.2176 229.334,95.2176 229.334,354.418 
  "/>
<polyline clip-path="url(#clip480)" style="stroke:#009af9; stroke-linecap:butt; stroke-linejoin:round; stroke-width:4; stroke-opacity:1; fill:none" points="
  253.741,147.058 400.184,147.058 
  "/>
<path clip-path="url(#clip480)" d="M446.836 130.912 L446.836 135.472 Q444.174 134.199 441.813 133.574 Q439.452 132.949 437.253 132.949 Q433.433 132.949 431.35 134.43 Q429.29 135.912 429.29 138.643 Q429.29 140.935 430.656 142.115 Q432.044 143.273 435.887 143.99 L438.711 144.569 Q443.943 145.565 446.419 148.088 Q448.919 150.588 448.919 154.801 Q448.919 159.824 445.54 162.416 Q442.183 165.009 435.679 165.009 Q433.225 165.009 430.447 164.453 Q427.693 163.898 424.73 162.81 L424.73 157.995 Q427.577 159.592 430.308 160.402 Q433.04 161.213 435.679 161.213 Q439.683 161.213 441.859 159.639 Q444.035 158.064 444.035 155.148 Q444.035 152.602 442.461 151.166 Q440.91 149.731 437.345 149.014 L434.498 148.458 Q429.267 147.416 426.929 145.194 Q424.591 142.972 424.591 139.014 Q424.591 134.43 427.808 131.791 Q431.049 129.153 436.72 129.153 Q439.151 129.153 441.674 129.592 Q444.197 130.032 446.836 130.912 Z" fill="#000000" fill-rule="evenodd" fill-opacity="1" /><path clip-path="url(#clip480)" d="M478.202 150.31 L478.202 152.393 L458.618 152.393 Q458.896 156.791 461.257 159.106 Q463.642 161.398 467.878 161.398 Q470.331 161.398 472.623 160.796 Q474.938 160.194 477.206 158.99 L477.206 163.018 Q474.915 163.99 472.507 164.5 Q470.1 165.009 467.623 165.009 Q461.419 165.009 457.785 161.398 Q454.174 157.787 454.174 151.629 Q454.174 145.264 457.6 141.537 Q461.049 137.787 466.882 137.787 Q472.114 137.787 475.146 141.166 Q478.202 144.523 478.202 150.31 M473.942 149.06 Q473.896 145.565 471.975 143.481 Q470.077 141.398 466.929 141.398 Q463.364 141.398 461.211 143.412 Q459.081 145.426 458.757 149.083 L473.942 149.06 Z" fill="#000000" fill-rule="evenodd" fill-opacity="1" /><path clip-path="url(#clip480)" d="M505.377 143.389 Q506.975 140.518 509.197 139.153 Q511.419 137.787 514.428 137.787 Q518.479 137.787 520.678 140.634 Q522.877 143.458 522.877 148.689 L522.877 164.338 L518.595 164.338 L518.595 148.828 Q518.595 145.102 517.275 143.296 Q515.956 141.49 513.248 141.49 Q509.938 141.49 508.016 143.69 Q506.095 145.889 506.095 149.685 L506.095 164.338 L501.813 164.338 L501.813 148.828 Q501.813 145.078 500.493 143.296 Q499.174 141.49 496.419 141.49 Q493.155 141.49 491.234 143.713 Q489.313 145.912 489.313 149.685 L489.313 164.338 L485.03 164.338 L485.03 138.412 L489.313 138.412 L489.313 142.44 Q490.771 140.055 492.808 138.921 Q494.845 137.787 497.646 137.787 Q500.47 137.787 502.438 139.222 Q504.428 140.657 505.377 143.389 Z" fill="#000000" fill-rule="evenodd" fill-opacity="1" /><path clip-path="url(#clip480)" d="M531.373 138.412 L535.632 138.412 L535.632 164.338 L531.373 164.338 L531.373 138.412 M531.373 128.319 L535.632 128.319 L535.632 133.713 L531.373 133.713 L531.373 128.319 Z" fill="#000000" fill-rule="evenodd" fill-opacity="1" /><path clip-path="url(#clip480)" d="M563.201 139.407 L563.201 143.389 Q561.396 142.393 559.567 141.907 Q557.761 141.398 555.91 141.398 Q551.766 141.398 549.474 144.037 Q547.183 146.652 547.183 151.398 Q547.183 156.143 549.474 158.782 Q551.766 161.398 555.91 161.398 Q557.761 161.398 559.567 160.912 Q561.396 160.402 563.201 159.407 L563.201 163.342 Q561.419 164.176 559.497 164.592 Q557.599 165.009 555.447 165.009 Q549.59 165.009 546.141 161.328 Q542.692 157.648 542.692 151.398 Q542.692 145.055 546.164 141.421 Q549.66 137.787 555.724 137.787 Q557.692 137.787 559.567 138.203 Q561.442 138.597 563.201 139.407 Z" fill="#000000" fill-rule="evenodd" fill-opacity="1" /><path clip-path="url(#clip480)" d="M570.609 138.412 L574.868 138.412 L574.868 164.338 L570.609 164.338 L570.609 138.412 M570.609 128.319 L574.868 128.319 L574.868 133.713 L570.609 133.713 L570.609 128.319 Z" fill="#000000" fill-rule="evenodd" fill-opacity="1" /><path clip-path="url(#clip480)" d="M598.803 142.393 Q598.085 141.977 597.229 141.791 Q596.395 141.583 595.377 141.583 Q591.766 141.583 589.821 143.944 Q587.9 146.282 587.9 150.68 L587.9 164.338 L583.618 164.338 L583.618 138.412 L587.9 138.412 L587.9 142.44 Q589.243 140.078 591.395 138.944 Q593.548 137.787 596.627 137.787 Q597.067 137.787 597.599 137.856 Q598.132 137.903 598.78 138.018 L598.803 142.393 Z" fill="#000000" fill-rule="evenodd" fill-opacity="1" /><path clip-path="url(#clip480)" d="M620.886 139.407 L620.886 143.389 Q619.081 142.393 617.252 141.907 Q615.446 141.398 613.594 141.398 Q609.451 141.398 607.159 144.037 Q604.868 146.652 604.868 151.398 Q604.868 156.143 607.159 158.782 Q609.451 161.398 613.594 161.398 Q615.446 161.398 617.252 160.912 Q619.081 160.402 620.886 159.407 L620.886 163.342 Q619.104 164.176 617.182 164.592 Q615.284 165.009 613.131 165.009 Q607.275 165.009 603.826 161.328 Q600.377 157.648 600.377 151.398 Q600.377 145.055 603.849 141.421 Q607.344 137.787 613.409 137.787 Q615.377 137.787 617.252 138.203 Q619.127 138.597 620.886 139.407 Z" fill="#000000" fill-rule="evenodd" fill-opacity="1" /><path clip-path="url(#clip480)" d="M628.293 128.319 L632.553 128.319 L632.553 164.338 L628.293 164.338 L628.293 128.319 Z" fill="#000000" fill-rule="evenodd" fill-opacity="1" /><path clip-path="url(#clip480)" d="M663.64 150.31 L663.64 152.393 L644.057 152.393 Q644.335 156.791 646.696 159.106 Q649.08 161.398 653.316 161.398 Q655.77 161.398 658.062 160.796 Q660.377 160.194 662.645 158.99 L662.645 163.018 Q660.353 163.99 657.946 164.5 Q655.539 165.009 653.062 165.009 Q646.858 165.009 643.224 161.398 Q639.613 157.787 639.613 151.629 Q639.613 145.264 643.039 141.537 Q646.488 137.787 652.321 137.787 Q657.553 137.787 660.585 141.166 Q663.64 144.523 663.64 150.31 M659.381 149.06 Q659.335 145.565 657.414 143.481 Q655.515 141.398 652.367 141.398 Q648.803 141.398 646.65 143.412 Q644.52 145.426 644.196 149.083 L659.381 149.06 Z" fill="#000000" fill-rule="evenodd" fill-opacity="1" /><polyline clip-path="url(#clip480)" style="stroke:#e26f46; stroke-linecap:butt; stroke-linejoin:round; stroke-width:4; stroke-opacity:1; fill:none" points="
  253.741,198.898 400.184,198.898 
  "/>
<path clip-path="url(#clip480)" d="M449.243 190.252 L439.869 202.867 L449.73 216.178 L444.706 216.178 L437.16 205.992 L429.614 216.178 L424.591 216.178 L434.66 202.613 L425.447 190.252 L430.47 190.252 L437.345 199.488 L444.22 190.252 L449.243 190.252 Z" fill="#000000" fill-rule="evenodd" fill-opacity="1" /><path clip-path="url(#clip480)" d="M473.41 181.618 L485.979 194.511 L481.327 194.511 L471.141 185.368 L460.956 194.511 L456.304 194.511 L468.873 181.618 L473.41 181.618 Z" fill="#000000" fill-rule="evenodd" fill-opacity="1" /><path clip-path="url(#clip480)" d="M508.919 185.692 L497.114 204.141 L508.919 204.141 L508.919 185.692 M507.692 181.618 L513.572 181.618 L513.572 204.141 L518.502 204.141 L518.502 208.029 L513.572 208.029 L513.572 216.178 L508.919 216.178 L508.919 208.029 L493.317 208.029 L493.317 203.516 L507.692 181.618 Z" fill="#000000" fill-rule="evenodd" fill-opacity="1" /><polyline clip-path="url(#clip480)" style="stroke:#3da44d; stroke-linecap:butt; stroke-linejoin:round; stroke-width:4; stroke-opacity:1; fill:none" points="
  253.741,250.738 400.184,250.738 
  "/>
<path clip-path="url(#clip480)" d="M449.243 242.092 L439.869 254.707 L449.73 268.018 L444.706 268.018 L437.16 257.832 L429.614 268.018 L424.591 268.018 L434.66 254.453 L425.447 242.092 L430.47 242.092 L437.345 251.328 L444.22 242.092 L449.243 242.092 Z" fill="#000000" fill-rule="evenodd" fill-opacity="1" /><path clip-path="url(#clip480)" d="M473.41 233.458 L485.979 246.351 L481.327 246.351 L471.141 237.208 L460.956 246.351 L456.304 246.351 L468.873 233.458 L473.41 233.458 Z" fill="#000000" fill-rule="evenodd" fill-opacity="1" /><path clip-path="url(#clip480)" d="M496.882 264.082 L504.521 264.082 L504.521 237.717 L496.211 239.383 L496.211 235.124 L504.475 233.458 L509.151 233.458 L509.151 264.082 L516.789 264.082 L516.789 268.018 L496.882 268.018 L496.882 264.082 Z" fill="#000000" fill-rule="evenodd" fill-opacity="1" /><path clip-path="url(#clip480)" d="M536.234 236.536 Q532.623 236.536 530.794 240.101 Q528.988 243.643 528.988 250.772 Q528.988 257.879 530.794 261.444 Q532.623 264.985 536.234 264.985 Q539.868 264.985 541.674 261.444 Q543.502 257.879 543.502 250.772 Q543.502 243.643 541.674 240.101 Q539.868 236.536 536.234 236.536 M536.234 232.833 Q542.044 232.833 545.099 237.439 Q548.178 242.022 548.178 250.772 Q548.178 259.499 545.099 264.106 Q542.044 268.689 536.234 268.689 Q530.424 268.689 527.345 264.106 Q524.289 259.499 524.289 250.772 Q524.289 242.022 527.345 237.439 Q530.424 232.833 536.234 232.833 Z" fill="#000000" fill-rule="evenodd" fill-opacity="1" /><path clip-path="url(#clip480)" d="M566.396 236.536 Q562.785 236.536 560.956 240.101 Q559.15 243.643 559.15 250.772 Q559.15 257.879 560.956 261.444 Q562.785 264.985 566.396 264.985 Q570.03 264.985 571.835 261.444 Q573.664 257.879 573.664 250.772 Q573.664 243.643 571.835 240.101 Q570.03 236.536 566.396 236.536 M566.396 232.833 Q572.206 232.833 575.261 237.439 Q578.34 242.022 578.34 250.772 Q578.34 259.499 575.261 264.106 Q572.206 268.689 566.396 268.689 Q560.585 268.689 557.507 264.106 Q554.451 259.499 554.451 250.772 Q554.451 242.022 557.507 237.439 Q560.585 232.833 566.396 232.833 Z" fill="#000000" fill-rule="evenodd" fill-opacity="1" /><polyline clip-path="url(#clip480)" style="stroke:#c271d2; stroke-linecap:butt; stroke-linejoin:round; stroke-width:4; stroke-opacity:1; fill:none" points="
  253.741,302.578 400.184,302.578 
  "/>
<path clip-path="url(#clip480)" d="M448.618 305.83 L448.618 307.913 L429.035 307.913 Q429.313 312.311 431.674 314.626 Q434.058 316.918 438.294 316.918 Q440.748 316.918 443.04 316.316 Q445.355 315.714 447.623 314.51 L447.623 318.538 Q445.331 319.51 442.924 320.02 Q440.517 320.529 438.04 320.529 Q431.836 320.529 428.202 316.918 Q424.591 313.307 424.591 307.149 Q424.591 300.784 428.017 297.057 Q431.466 293.307 437.299 293.307 Q442.531 293.307 445.563 296.686 Q448.618 300.043 448.618 305.83 M444.359 304.58 Q444.313 301.085 442.392 299.001 Q440.494 296.918 437.345 296.918 Q433.781 296.918 431.628 298.932 Q429.498 300.946 429.174 304.603 L444.359 304.58 Z" fill="#000000" fill-rule="evenodd" fill-opacity="1" /><path clip-path="url(#clip480)" d="M476.327 293.932 L466.952 306.547 L476.813 319.858 L471.79 319.858 L464.243 309.672 L456.697 319.858 L451.674 319.858 L461.743 306.293 L452.53 293.932 L457.554 293.932 L464.429 303.168 L471.304 293.932 L476.327 293.932 Z" fill="#000000" fill-rule="evenodd" fill-opacity="1" /><path clip-path="url(#clip480)" d="M486.952 315.969 L486.952 329.719 L482.669 329.719 L482.669 293.932 L486.952 293.932 L486.952 297.867 Q488.294 295.552 490.331 294.441 Q492.391 293.307 495.239 293.307 Q499.961 293.307 502.901 297.057 Q505.864 300.807 505.864 306.918 Q505.864 313.029 502.901 316.779 Q499.961 320.529 495.239 320.529 Q492.391 320.529 490.331 319.418 Q488.294 318.283 486.952 315.969 M501.442 306.918 Q501.442 302.219 499.498 299.557 Q497.577 296.872 494.197 296.872 Q490.817 296.872 488.873 299.557 Q486.952 302.219 486.952 306.918 Q486.952 311.617 488.873 314.302 Q490.817 316.964 494.197 316.964 Q497.577 316.964 499.498 314.302 Q501.442 311.617 501.442 306.918 Z" fill="#000000" fill-rule="evenodd" fill-opacity="1" /><path clip-path="url(#clip480)" d="M523.155 283.886 Q520.053 289.21 518.549 294.418 Q517.044 299.626 517.044 304.973 Q517.044 310.321 518.549 315.575 Q520.076 320.807 523.155 326.108 L519.451 326.108 Q515.979 320.668 514.243 315.413 Q512.53 310.159 512.53 304.973 Q512.53 299.811 514.243 294.58 Q515.956 289.348 519.451 283.886 L523.155 283.886 Z" fill="#000000" fill-rule="evenodd" fill-opacity="1" /><path clip-path="url(#clip480)" d="M552.97 293.932 L543.595 306.547 L553.456 319.858 L548.433 319.858 L540.886 309.672 L533.34 319.858 L528.317 319.858 L538.386 306.293 L529.174 293.932 L534.197 293.932 L541.072 303.168 L547.947 293.932 L552.97 293.932 Z" fill="#000000" fill-rule="evenodd" fill-opacity="1" /><path clip-path="url(#clip480)" d="M558.803 283.886 L562.507 283.886 Q565.979 289.348 567.692 294.58 Q569.428 299.811 569.428 304.973 Q569.428 310.159 567.692 315.413 Q565.979 320.668 562.507 326.108 L558.803 326.108 Q561.882 320.807 563.386 315.575 Q564.914 310.321 564.914 304.973 Q564.914 299.626 563.386 294.418 Q561.882 289.21 558.803 283.886 Z" fill="#000000" fill-rule="evenodd" fill-opacity="1" /><path clip-path="url(#clip480)" d="M590.886 304.973 L603.363 304.973 L603.363 308.77 L590.886 308.77 L590.886 304.973 Z" fill="#000000" fill-rule="evenodd" fill-opacity="1" /><path clip-path="url(#clip480)" d="M646.766 293.932 L637.391 306.547 L647.252 319.858 L642.229 319.858 L634.682 309.672 L627.136 319.858 L622.113 319.858 L632.182 306.293 L622.969 293.932 L627.992 293.932 L634.867 303.168 L641.742 293.932 L646.766 293.932 Z" fill="#000000" fill-rule="evenodd" fill-opacity="1" /></svg>
